<?xml version="1.0" encoding="utf-8" standalone="no"?>
<!DOCTYPE svg PUBLIC "-//W3C//DTD SVG 1.1//EN"
  "http://www.w3.org/Graphics/SVG/1.1/DTD/svg11.dtd">
<svg xmlns:xlink="http://www.w3.org/1999/xlink" width="917.80795pt" height="490.108594pt" viewBox="0 0 917.80795 490.108594" xmlns="http://www.w3.org/2000/svg" version="1.1">
 <metadata>
  <rdf:RDF xmlns:dc="http://purl.org/dc/elements/1.1/" xmlns:cc="http://creativecommons.org/ns#" xmlns:rdf="http://www.w3.org/1999/02/22-rdf-syntax-ns#">
   <cc:Work>
    <dc:type rdf:resource="http://purl.org/dc/dcmitype/StillImage"/>
    <dc:date>2026-03-16T19:22:55.590418</dc:date>
    <dc:format>image/svg+xml</dc:format>
    <dc:creator>
     <cc:Agent>
      <dc:title>Matplotlib v3.10.7, https://matplotlib.org/</dc:title>
     </cc:Agent>
    </dc:creator>
   </cc:Work>
  </rdf:RDF>
 </metadata>
 <defs>
  <style type="text/css">*{stroke-linejoin: round; stroke-linecap: butt}</style>
 </defs>
 <g id="figure_1">
  <g id="patch_1">
   <path d="M 0 490.108594 
L 917.80795 490.108594 
L 917.80795 0 
L 0 0 
z
" style="fill: #ffffff"/>
  </g>
  <g id="axes_1">
   <g id="patch_2">
    <path d="M 56.840937 416.197178 
L 901.970843 416.197178 
L 901.970843 115.812673 
L 56.840937 115.812673 
z
" style="fill: #ffffff"/>
   </g>
   <g id="matplotlib.axis_1">
    <g id="xtick_1">
     <g id="line2d_1">
      <defs>
       <path id="m776754a01c" d="M 0 0 
L 0 3.5 
" style="stroke: #000000; stroke-width: 0.8"/>
      </defs>
      <g>
       <use xlink:href="#m776754a01c" x="136.74755" y="416.197178" style="stroke: #000000; stroke-width: 0.8"/>
      </g>
     </g>
     <g id="text_1">
      <!-- 1940 -->
      <g transform="translate(122.75005 431.555459) scale(0.11 -0.11)">
       <defs>
        <path id="DejaVuSans-31" d="M 794 531 
L 1825 531 
L 1825 4091 
L 703 3866 
L 703 4441 
L 1819 4666 
L 2450 4666 
L 2450 531 
L 3481 531 
L 3481 0 
L 794 0 
L 794 531 
z
" transform="scale(0.015625)"/>
        <path id="DejaVuSans-39" d="M 703 97 
L 703 672 
Q 941 559 1184 500 
Q 1428 441 1663 441 
Q 2288 441 2617 861 
Q 2947 1281 2994 2138 
Q 2813 1869 2534 1725 
Q 2256 1581 1919 1581 
Q 1219 1581 811 2004 
Q 403 2428 403 3163 
Q 403 3881 828 4315 
Q 1253 4750 1959 4750 
Q 2769 4750 3195 4129 
Q 3622 3509 3622 2328 
Q 3622 1225 3098 567 
Q 2575 -91 1691 -91 
Q 1453 -91 1209 -44 
Q 966 3 703 97 
z
M 1959 2075 
Q 2384 2075 2632 2365 
Q 2881 2656 2881 3163 
Q 2881 3666 2632 3958 
Q 2384 4250 1959 4250 
Q 1534 4250 1286 3958 
Q 1038 3666 1038 3163 
Q 1038 2656 1286 2365 
Q 1534 2075 1959 2075 
z
" transform="scale(0.015625)"/>
        <path id="DejaVuSans-34" d="M 2419 4116 
L 825 1625 
L 2419 1625 
L 2419 4116 
z
M 2253 4666 
L 3047 4666 
L 3047 1625 
L 3713 1625 
L 3713 1100 
L 3047 1100 
L 3047 0 
L 2419 0 
L 2419 1100 
L 313 1100 
L 313 1709 
L 2253 4666 
z
" transform="scale(0.015625)"/>
        <path id="DejaVuSans-30" d="M 2034 4250 
Q 1547 4250 1301 3770 
Q 1056 3291 1056 2328 
Q 1056 1369 1301 889 
Q 1547 409 2034 409 
Q 2525 409 2770 889 
Q 3016 1369 3016 2328 
Q 3016 3291 2770 3770 
Q 2525 4250 2034 4250 
z
M 2034 4750 
Q 2819 4750 3233 4129 
Q 3647 3509 3647 2328 
Q 3647 1150 3233 529 
Q 2819 -91 2034 -91 
Q 1250 -91 836 529 
Q 422 1150 422 2328 
Q 422 3509 836 4129 
Q 1250 4750 2034 4750 
z
" transform="scale(0.015625)"/>
       </defs>
       <use xlink:href="#DejaVuSans-31"/>
       <use xlink:href="#DejaVuSans-39" transform="translate(63.623047 0)"/>
       <use xlink:href="#DejaVuSans-34" transform="translate(127.246094 0)"/>
       <use xlink:href="#DejaVuSans-30" transform="translate(190.869141 0)"/>
      </g>
     </g>
    </g>
    <g id="xtick_2">
     <g id="line2d_2">
      <g>
       <use xlink:href="#m776754a01c" x="221.187034" y="416.197178" style="stroke: #000000; stroke-width: 0.8"/>
      </g>
     </g>
     <g id="text_2">
      <!-- 1950 -->
      <g transform="translate(207.189534 431.555459) scale(0.11 -0.11)">
       <defs>
        <path id="DejaVuSans-35" d="M 691 4666 
L 3169 4666 
L 3169 4134 
L 1269 4134 
L 1269 2991 
Q 1406 3038 1543 3061 
Q 1681 3084 1819 3084 
Q 2600 3084 3056 2656 
Q 3513 2228 3513 1497 
Q 3513 744 3044 326 
Q 2575 -91 1722 -91 
Q 1428 -91 1123 -41 
Q 819 9 494 109 
L 494 744 
Q 775 591 1075 516 
Q 1375 441 1709 441 
Q 2250 441 2565 725 
Q 2881 1009 2881 1497 
Q 2881 1984 2565 2268 
Q 2250 2553 1709 2553 
Q 1456 2553 1204 2497 
Q 953 2441 691 2322 
L 691 4666 
z
" transform="scale(0.015625)"/>
       </defs>
       <use xlink:href="#DejaVuSans-31"/>
       <use xlink:href="#DejaVuSans-39" transform="translate(63.623047 0)"/>
       <use xlink:href="#DejaVuSans-35" transform="translate(127.246094 0)"/>
       <use xlink:href="#DejaVuSans-30" transform="translate(190.869141 0)"/>
      </g>
     </g>
    </g>
    <g id="xtick_3">
     <g id="line2d_3">
      <g>
       <use xlink:href="#m776754a01c" x="305.603404" y="416.197178" style="stroke: #000000; stroke-width: 0.8"/>
      </g>
     </g>
     <g id="text_3">
      <!-- 1960 -->
      <g transform="translate(291.605904 431.555459) scale(0.11 -0.11)">
       <defs>
        <path id="DejaVuSans-36" d="M 2113 2584 
Q 1688 2584 1439 2293 
Q 1191 2003 1191 1497 
Q 1191 994 1439 701 
Q 1688 409 2113 409 
Q 2538 409 2786 701 
Q 3034 994 3034 1497 
Q 3034 2003 2786 2293 
Q 2538 2584 2113 2584 
z
M 3366 4563 
L 3366 3988 
Q 3128 4100 2886 4159 
Q 2644 4219 2406 4219 
Q 1781 4219 1451 3797 
Q 1122 3375 1075 2522 
Q 1259 2794 1537 2939 
Q 1816 3084 2150 3084 
Q 2853 3084 3261 2657 
Q 3669 2231 3669 1497 
Q 3669 778 3244 343 
Q 2819 -91 2113 -91 
Q 1303 -91 875 529 
Q 447 1150 447 2328 
Q 447 3434 972 4092 
Q 1497 4750 2381 4750 
Q 2619 4750 2861 4703 
Q 3103 4656 3366 4563 
z
" transform="scale(0.015625)"/>
       </defs>
       <use xlink:href="#DejaVuSans-31"/>
       <use xlink:href="#DejaVuSans-39" transform="translate(63.623047 0)"/>
       <use xlink:href="#DejaVuSans-36" transform="translate(127.246094 0)"/>
       <use xlink:href="#DejaVuSans-30" transform="translate(190.869141 0)"/>
      </g>
     </g>
    </g>
    <g id="xtick_4">
     <g id="line2d_4">
      <g>
       <use xlink:href="#m776754a01c" x="390.042888" y="416.197178" style="stroke: #000000; stroke-width: 0.8"/>
      </g>
     </g>
     <g id="text_4">
      <!-- 1970 -->
      <g transform="translate(376.045388 431.555459) scale(0.11 -0.11)">
       <defs>
        <path id="DejaVuSans-37" d="M 525 4666 
L 3525 4666 
L 3525 4397 
L 1831 0 
L 1172 0 
L 2766 4134 
L 525 4134 
L 525 4666 
z
" transform="scale(0.015625)"/>
       </defs>
       <use xlink:href="#DejaVuSans-31"/>
       <use xlink:href="#DejaVuSans-39" transform="translate(63.623047 0)"/>
       <use xlink:href="#DejaVuSans-37" transform="translate(127.246094 0)"/>
       <use xlink:href="#DejaVuSans-30" transform="translate(190.869141 0)"/>
      </g>
     </g>
    </g>
    <g id="xtick_5">
     <g id="line2d_5">
      <g>
       <use xlink:href="#m776754a01c" x="474.459258" y="416.197178" style="stroke: #000000; stroke-width: 0.8"/>
      </g>
     </g>
     <g id="text_5">
      <!-- 1980 -->
      <g transform="translate(460.461758 431.555459) scale(0.11 -0.11)">
       <defs>
        <path id="DejaVuSans-38" d="M 2034 2216 
Q 1584 2216 1326 1975 
Q 1069 1734 1069 1313 
Q 1069 891 1326 650 
Q 1584 409 2034 409 
Q 2484 409 2743 651 
Q 3003 894 3003 1313 
Q 3003 1734 2745 1975 
Q 2488 2216 2034 2216 
z
M 1403 2484 
Q 997 2584 770 2862 
Q 544 3141 544 3541 
Q 544 4100 942 4425 
Q 1341 4750 2034 4750 
Q 2731 4750 3128 4425 
Q 3525 4100 3525 3541 
Q 3525 3141 3298 2862 
Q 3072 2584 2669 2484 
Q 3125 2378 3379 2068 
Q 3634 1759 3634 1313 
Q 3634 634 3220 271 
Q 2806 -91 2034 -91 
Q 1263 -91 848 271 
Q 434 634 434 1313 
Q 434 1759 690 2068 
Q 947 2378 1403 2484 
z
M 1172 3481 
Q 1172 3119 1398 2916 
Q 1625 2713 2034 2713 
Q 2441 2713 2670 2916 
Q 2900 3119 2900 3481 
Q 2900 3844 2670 4047 
Q 2441 4250 2034 4250 
Q 1625 4250 1398 4047 
Q 1172 3844 1172 3481 
z
" transform="scale(0.015625)"/>
       </defs>
       <use xlink:href="#DejaVuSans-31"/>
       <use xlink:href="#DejaVuSans-39" transform="translate(63.623047 0)"/>
       <use xlink:href="#DejaVuSans-38" transform="translate(127.246094 0)"/>
       <use xlink:href="#DejaVuSans-30" transform="translate(190.869141 0)"/>
      </g>
     </g>
    </g>
    <g id="xtick_6">
     <g id="line2d_6">
      <g>
       <use xlink:href="#m776754a01c" x="558.898742" y="416.197178" style="stroke: #000000; stroke-width: 0.8"/>
      </g>
     </g>
     <g id="text_6">
      <!-- 1990 -->
      <g transform="translate(544.901242 431.555459) scale(0.11 -0.11)">
       <use xlink:href="#DejaVuSans-31"/>
       <use xlink:href="#DejaVuSans-39" transform="translate(63.623047 0)"/>
       <use xlink:href="#DejaVuSans-39" transform="translate(127.246094 0)"/>
       <use xlink:href="#DejaVuSans-30" transform="translate(190.869141 0)"/>
      </g>
     </g>
    </g>
    <g id="xtick_7">
     <g id="line2d_7">
      <g>
       <use xlink:href="#m776754a01c" x="643.315112" y="416.197178" style="stroke: #000000; stroke-width: 0.8"/>
      </g>
     </g>
     <g id="text_7">
      <!-- 2000 -->
      <g transform="translate(629.317612 431.555459) scale(0.11 -0.11)">
       <defs>
        <path id="DejaVuSans-32" d="M 1228 531 
L 3431 531 
L 3431 0 
L 469 0 
L 469 531 
Q 828 903 1448 1529 
Q 2069 2156 2228 2338 
Q 2531 2678 2651 2914 
Q 2772 3150 2772 3378 
Q 2772 3750 2511 3984 
Q 2250 4219 1831 4219 
Q 1534 4219 1204 4116 
Q 875 4013 500 3803 
L 500 4441 
Q 881 4594 1212 4672 
Q 1544 4750 1819 4750 
Q 2544 4750 2975 4387 
Q 3406 4025 3406 3419 
Q 3406 3131 3298 2873 
Q 3191 2616 2906 2266 
Q 2828 2175 2409 1742 
Q 1991 1309 1228 531 
z
" transform="scale(0.015625)"/>
       </defs>
       <use xlink:href="#DejaVuSans-32"/>
       <use xlink:href="#DejaVuSans-30" transform="translate(63.623047 0)"/>
       <use xlink:href="#DejaVuSans-30" transform="translate(127.246094 0)"/>
       <use xlink:href="#DejaVuSans-30" transform="translate(190.869141 0)"/>
      </g>
     </g>
    </g>
    <g id="xtick_8">
     <g id="line2d_8">
      <g>
       <use xlink:href="#m776754a01c" x="727.754596" y="416.197178" style="stroke: #000000; stroke-width: 0.8"/>
      </g>
     </g>
     <g id="text_8">
      <!-- 2010 -->
      <g transform="translate(713.757096 431.555459) scale(0.11 -0.11)">
       <use xlink:href="#DejaVuSans-32"/>
       <use xlink:href="#DejaVuSans-30" transform="translate(63.623047 0)"/>
       <use xlink:href="#DejaVuSans-31" transform="translate(127.246094 0)"/>
       <use xlink:href="#DejaVuSans-30" transform="translate(190.869141 0)"/>
      </g>
     </g>
    </g>
    <g id="xtick_9">
     <g id="line2d_9">
      <g>
       <use xlink:href="#m776754a01c" x="812.170966" y="416.197178" style="stroke: #000000; stroke-width: 0.8"/>
      </g>
     </g>
     <g id="text_9">
      <!-- 2020 -->
      <g transform="translate(798.173466 431.555459) scale(0.11 -0.11)">
       <use xlink:href="#DejaVuSans-32"/>
       <use xlink:href="#DejaVuSans-30" transform="translate(63.623047 0)"/>
       <use xlink:href="#DejaVuSans-32" transform="translate(127.246094 0)"/>
       <use xlink:href="#DejaVuSans-30" transform="translate(190.869141 0)"/>
      </g>
     </g>
    </g>
    <g id="xtick_10">
     <g id="line2d_10">
      <g>
       <use xlink:href="#m776754a01c" x="896.61045" y="416.197178" style="stroke: #000000; stroke-width: 0.8"/>
      </g>
     </g>
     <g id="text_10">
      <!-- 2030 -->
      <g transform="translate(882.61295 431.555459) scale(0.11 -0.11)">
       <defs>
        <path id="DejaVuSans-33" d="M 2597 2516 
Q 3050 2419 3304 2112 
Q 3559 1806 3559 1356 
Q 3559 666 3084 287 
Q 2609 -91 1734 -91 
Q 1441 -91 1130 -33 
Q 819 25 488 141 
L 488 750 
Q 750 597 1062 519 
Q 1375 441 1716 441 
Q 2309 441 2620 675 
Q 2931 909 2931 1356 
Q 2931 1769 2642 2001 
Q 2353 2234 1838 2234 
L 1294 2234 
L 1294 2753 
L 1863 2753 
Q 2328 2753 2575 2939 
Q 2822 3125 2822 3475 
Q 2822 3834 2567 4026 
Q 2313 4219 1838 4219 
Q 1578 4219 1281 4162 
Q 984 4106 628 3988 
L 628 4550 
Q 988 4650 1302 4700 
Q 1616 4750 1894 4750 
Q 2613 4750 3031 4423 
Q 3450 4097 3450 3541 
Q 3450 3153 3228 2886 
Q 3006 2619 2597 2516 
z
" transform="scale(0.015625)"/>
       </defs>
       <use xlink:href="#DejaVuSans-32"/>
       <use xlink:href="#DejaVuSans-30" transform="translate(63.623047 0)"/>
       <use xlink:href="#DejaVuSans-33" transform="translate(127.246094 0)"/>
       <use xlink:href="#DejaVuSans-30" transform="translate(190.869141 0)"/>
      </g>
     </g>
    </g>
   </g>
   <g id="matplotlib.axis_2">
    <g id="ytick_1">
     <g id="line2d_11">
      <path d="M 56.840937 408.916655 
L 901.970843 408.916655 
" clip-path="url(#p6593d145a8)" style="fill: none; stroke-dasharray: 2.96,1.28; stroke-dashoffset: 0; stroke: #b0b0b0; stroke-opacity: 0.25; stroke-width: 0.8"/>
     </g>
     <g id="line2d_12">
      <defs>
       <path id="m123fb23446" d="M 0 0 
L -3.5 0 
" style="stroke: #000000; stroke-width: 0.8"/>
      </defs>
      <g>
       <use xlink:href="#m123fb23446" x="56.840937" y="408.916655" style="stroke: #000000; stroke-width: 0.8"/>
      </g>
     </g>
     <g id="text_11">
      <!-- 700 -->
      <g transform="translate(28.844687 413.095796) scale(0.11 -0.11)">
       <use xlink:href="#DejaVuSans-37"/>
       <use xlink:href="#DejaVuSans-30" transform="translate(63.623047 0)"/>
       <use xlink:href="#DejaVuSans-30" transform="translate(127.246094 0)"/>
      </g>
     </g>
    </g>
    <g id="ytick_2">
     <g id="line2d_13">
      <path d="M 56.840937 354.175885 
L 901.970843 354.175885 
" clip-path="url(#p6593d145a8)" style="fill: none; stroke-dasharray: 2.96,1.28; stroke-dashoffset: 0; stroke: #b0b0b0; stroke-opacity: 0.25; stroke-width: 0.8"/>
     </g>
     <g id="line2d_14">
      <g>
       <use xlink:href="#m123fb23446" x="56.840937" y="354.175885" style="stroke: #000000; stroke-width: 0.8"/>
      </g>
     </g>
     <g id="text_12">
      <!-- 800 -->
      <g transform="translate(28.844687 358.355025) scale(0.11 -0.11)">
       <use xlink:href="#DejaVuSans-38"/>
       <use xlink:href="#DejaVuSans-30" transform="translate(63.623047 0)"/>
       <use xlink:href="#DejaVuSans-30" transform="translate(127.246094 0)"/>
      </g>
     </g>
    </g>
    <g id="ytick_3">
     <g id="line2d_15">
      <path d="M 56.840937 299.435114 
L 901.970843 299.435114 
" clip-path="url(#p6593d145a8)" style="fill: none; stroke-dasharray: 2.96,1.28; stroke-dashoffset: 0; stroke: #b0b0b0; stroke-opacity: 0.25; stroke-width: 0.8"/>
     </g>
     <g id="line2d_16">
      <g>
       <use xlink:href="#m123fb23446" x="56.840937" y="299.435114" style="stroke: #000000; stroke-width: 0.8"/>
      </g>
     </g>
     <g id="text_13">
      <!-- 900 -->
      <g transform="translate(28.844687 303.614255) scale(0.11 -0.11)">
       <use xlink:href="#DejaVuSans-39"/>
       <use xlink:href="#DejaVuSans-30" transform="translate(63.623047 0)"/>
       <use xlink:href="#DejaVuSans-30" transform="translate(127.246094 0)"/>
      </g>
     </g>
    </g>
    <g id="ytick_4">
     <g id="line2d_17">
      <path d="M 56.840937 244.694343 
L 901.970843 244.694343 
" clip-path="url(#p6593d145a8)" style="fill: none; stroke-dasharray: 2.96,1.28; stroke-dashoffset: 0; stroke: #b0b0b0; stroke-opacity: 0.25; stroke-width: 0.8"/>
     </g>
     <g id="line2d_18">
      <g>
       <use xlink:href="#m123fb23446" x="56.840937" y="244.694343" style="stroke: #000000; stroke-width: 0.8"/>
      </g>
     </g>
     <g id="text_14">
      <!-- 1000 -->
      <g transform="translate(21.845937 248.873484) scale(0.11 -0.11)">
       <use xlink:href="#DejaVuSans-31"/>
       <use xlink:href="#DejaVuSans-30" transform="translate(63.623047 0)"/>
       <use xlink:href="#DejaVuSans-30" transform="translate(127.246094 0)"/>
       <use xlink:href="#DejaVuSans-30" transform="translate(190.869141 0)"/>
      </g>
     </g>
    </g>
    <g id="ytick_5">
     <g id="line2d_19">
      <path d="M 56.840937 189.953573 
L 901.970843 189.953573 
" clip-path="url(#p6593d145a8)" style="fill: none; stroke-dasharray: 2.96,1.28; stroke-dashoffset: 0; stroke: #b0b0b0; stroke-opacity: 0.25; stroke-width: 0.8"/>
     </g>
     <g id="line2d_20">
      <g>
       <use xlink:href="#m123fb23446" x="56.840937" y="189.953573" style="stroke: #000000; stroke-width: 0.8"/>
      </g>
     </g>
     <g id="text_15">
      <!-- 1100 -->
      <g transform="translate(21.845937 194.132714) scale(0.11 -0.11)">
       <use xlink:href="#DejaVuSans-31"/>
       <use xlink:href="#DejaVuSans-31" transform="translate(63.623047 0)"/>
       <use xlink:href="#DejaVuSans-30" transform="translate(127.246094 0)"/>
       <use xlink:href="#DejaVuSans-30" transform="translate(190.869141 0)"/>
      </g>
     </g>
    </g>
    <g id="ytick_6">
     <g id="line2d_21">
      <path d="M 56.840937 135.212802 
L 901.970843 135.212802 
" clip-path="url(#p6593d145a8)" style="fill: none; stroke-dasharray: 2.96,1.28; stroke-dashoffset: 0; stroke: #b0b0b0; stroke-opacity: 0.25; stroke-width: 0.8"/>
     </g>
     <g id="line2d_22">
      <g>
       <use xlink:href="#m123fb23446" x="56.840937" y="135.212802" style="stroke: #000000; stroke-width: 0.8"/>
      </g>
     </g>
     <g id="text_16">
      <!-- 1200 -->
      <g transform="translate(21.845937 139.391943) scale(0.11 -0.11)">
       <use xlink:href="#DejaVuSans-31"/>
       <use xlink:href="#DejaVuSans-32" transform="translate(63.623047 0)"/>
       <use xlink:href="#DejaVuSans-30" transform="translate(127.246094 0)"/>
       <use xlink:href="#DejaVuSans-30" transform="translate(190.869141 0)"/>
      </g>
     </g>
    </g>
    <g id="text_17">
     <!-- Elevation (feet) -->
     <g transform="translate(15.558281 308.453754) rotate(-90) scale(0.11 -0.11)">
      <defs>
       <path id="DejaVuSans-45" d="M 628 4666 
L 3578 4666 
L 3578 4134 
L 1259 4134 
L 1259 2753 
L 3481 2753 
L 3481 2222 
L 1259 2222 
L 1259 531 
L 3634 531 
L 3634 0 
L 628 0 
L 628 4666 
z
" transform="scale(0.015625)"/>
       <path id="DejaVuSans-6c" d="M 603 4863 
L 1178 4863 
L 1178 0 
L 603 0 
L 603 4863 
z
" transform="scale(0.015625)"/>
       <path id="DejaVuSans-65" d="M 3597 1894 
L 3597 1613 
L 953 1613 
Q 991 1019 1311 708 
Q 1631 397 2203 397 
Q 2534 397 2845 478 
Q 3156 559 3463 722 
L 3463 178 
Q 3153 47 2828 -22 
Q 2503 -91 2169 -91 
Q 1331 -91 842 396 
Q 353 884 353 1716 
Q 353 2575 817 3079 
Q 1281 3584 2069 3584 
Q 2775 3584 3186 3129 
Q 3597 2675 3597 1894 
z
M 3022 2063 
Q 3016 2534 2758 2815 
Q 2500 3097 2075 3097 
Q 1594 3097 1305 2825 
Q 1016 2553 972 2059 
L 3022 2063 
z
" transform="scale(0.015625)"/>
       <path id="DejaVuSans-76" d="M 191 3500 
L 800 3500 
L 1894 563 
L 2988 3500 
L 3597 3500 
L 2284 0 
L 1503 0 
L 191 3500 
z
" transform="scale(0.015625)"/>
       <path id="DejaVuSans-61" d="M 2194 1759 
Q 1497 1759 1228 1600 
Q 959 1441 959 1056 
Q 959 750 1161 570 
Q 1363 391 1709 391 
Q 2188 391 2477 730 
Q 2766 1069 2766 1631 
L 2766 1759 
L 2194 1759 
z
M 3341 1997 
L 3341 0 
L 2766 0 
L 2766 531 
Q 2569 213 2275 61 
Q 1981 -91 1556 -91 
Q 1019 -91 701 211 
Q 384 513 384 1019 
Q 384 1609 779 1909 
Q 1175 2209 1959 2209 
L 2766 2209 
L 2766 2266 
Q 2766 2663 2505 2880 
Q 2244 3097 1772 3097 
Q 1472 3097 1187 3025 
Q 903 2953 641 2809 
L 641 3341 
Q 956 3463 1253 3523 
Q 1550 3584 1831 3584 
Q 2591 3584 2966 3190 
Q 3341 2797 3341 1997 
z
" transform="scale(0.015625)"/>
       <path id="DejaVuSans-74" d="M 1172 4494 
L 1172 3500 
L 2356 3500 
L 2356 3053 
L 1172 3053 
L 1172 1153 
Q 1172 725 1289 603 
Q 1406 481 1766 481 
L 2356 481 
L 2356 0 
L 1766 0 
Q 1100 0 847 248 
Q 594 497 594 1153 
L 594 3053 
L 172 3053 
L 172 3500 
L 594 3500 
L 594 4494 
L 1172 4494 
z
" transform="scale(0.015625)"/>
       <path id="DejaVuSans-69" d="M 603 3500 
L 1178 3500 
L 1178 0 
L 603 0 
L 603 3500 
z
M 603 4863 
L 1178 4863 
L 1178 4134 
L 603 4134 
L 603 4863 
z
" transform="scale(0.015625)"/>
       <path id="DejaVuSans-6f" d="M 1959 3097 
Q 1497 3097 1228 2736 
Q 959 2375 959 1747 
Q 959 1119 1226 758 
Q 1494 397 1959 397 
Q 2419 397 2687 759 
Q 2956 1122 2956 1747 
Q 2956 2369 2687 2733 
Q 2419 3097 1959 3097 
z
M 1959 3584 
Q 2709 3584 3137 3096 
Q 3566 2609 3566 1747 
Q 3566 888 3137 398 
Q 2709 -91 1959 -91 
Q 1206 -91 779 398 
Q 353 888 353 1747 
Q 353 2609 779 3096 
Q 1206 3584 1959 3584 
z
" transform="scale(0.015625)"/>
       <path id="DejaVuSans-6e" d="M 3513 2113 
L 3513 0 
L 2938 0 
L 2938 2094 
Q 2938 2591 2744 2837 
Q 2550 3084 2163 3084 
Q 1697 3084 1428 2787 
Q 1159 2491 1159 1978 
L 1159 0 
L 581 0 
L 581 3500 
L 1159 3500 
L 1159 2956 
Q 1366 3272 1645 3428 
Q 1925 3584 2291 3584 
Q 2894 3584 3203 3211 
Q 3513 2838 3513 2113 
z
" transform="scale(0.015625)"/>
       <path id="DejaVuSans-20" transform="scale(0.015625)"/>
       <path id="DejaVuSans-28" d="M 1984 4856 
Q 1566 4138 1362 3434 
Q 1159 2731 1159 2009 
Q 1159 1288 1364 580 
Q 1569 -128 1984 -844 
L 1484 -844 
Q 1016 -109 783 600 
Q 550 1309 550 2009 
Q 550 2706 781 3412 
Q 1013 4119 1484 4856 
L 1984 4856 
z
" transform="scale(0.015625)"/>
       <path id="DejaVuSans-66" d="M 2375 4863 
L 2375 4384 
L 1825 4384 
Q 1516 4384 1395 4259 
Q 1275 4134 1275 3809 
L 1275 3500 
L 2222 3500 
L 2222 3053 
L 1275 3053 
L 1275 0 
L 697 0 
L 697 3053 
L 147 3053 
L 147 3500 
L 697 3500 
L 697 3744 
Q 697 4328 969 4595 
Q 1241 4863 1831 4863 
L 2375 4863 
z
" transform="scale(0.015625)"/>
       <path id="DejaVuSans-29" d="M 513 4856 
L 1013 4856 
Q 1481 4119 1714 3412 
Q 1947 2706 1947 2009 
Q 1947 1309 1714 600 
Q 1481 -109 1013 -844 
L 513 -844 
Q 928 -128 1133 580 
Q 1338 1288 1338 2009 
Q 1338 2731 1133 3434 
Q 928 4138 513 4856 
z
" transform="scale(0.015625)"/>
      </defs>
      <use xlink:href="#DejaVuSans-45"/>
      <use xlink:href="#DejaVuSans-6c" transform="translate(63.183594 0)"/>
      <use xlink:href="#DejaVuSans-65" transform="translate(90.966797 0)"/>
      <use xlink:href="#DejaVuSans-76" transform="translate(152.490234 0)"/>
      <use xlink:href="#DejaVuSans-61" transform="translate(211.669922 0)"/>
      <use xlink:href="#DejaVuSans-74" transform="translate(272.949219 0)"/>
      <use xlink:href="#DejaVuSans-69" transform="translate(312.158203 0)"/>
      <use xlink:href="#DejaVuSans-6f" transform="translate(339.941406 0)"/>
      <use xlink:href="#DejaVuSans-6e" transform="translate(401.123047 0)"/>
      <use xlink:href="#DejaVuSans-20" transform="translate(464.501953 0)"/>
      <use xlink:href="#DejaVuSans-28" transform="translate(496.289062 0)"/>
      <use xlink:href="#DejaVuSans-66" transform="translate(535.302734 0)"/>
      <use xlink:href="#DejaVuSans-65" transform="translate(570.507812 0)"/>
      <use xlink:href="#DejaVuSans-65" transform="translate(632.03125 0)"/>
      <use xlink:href="#DejaVuSans-74" transform="translate(693.554688 0)"/>
      <use xlink:href="#DejaVuSans-29" transform="translate(732.763672 0)"/>
     </g>
    </g>
   </g>
   <g id="line2d_23">
    <path d="M 95.255933 404.154208 
L 95.903156 407.986062 
L 97.313178 350.562994 
L 98.029746 294.453704 
L 98.723199 283.888735 
L 99.439768 285.257254 
L 100.156336 288.049034 
L 101.566357 294.89163 
L 102.259811 294.836889 
L 102.976379 295.110593 
L 103.692947 294.836889 
L 104.363285 295.658001 
L 105.079854 287.282663 
L 105.773307 254.328719 
L 106.489875 236.209524 
L 107.183328 233.527226 
L 107.899897 231.337595 
L 108.616465 231.228114 
L 109.309918 232.322929 
L 110.026486 231.775522 
L 110.71994 231.830262 
L 111.436508 232.541892 
L 112.153076 230.352262 
L 112.800299 227.724705 
L 113.516867 220.27996 
L 114.210321 201.613357 
L 114.926889 191.814759 
L 115.620342 188.420831 
L 116.33691 190.172536 
L 117.053479 191.267351 
L 118.4635 192.143204 
L 119.156953 192.280056 
L 119.873522 192.690611 
L 120.59009 192.772723 
L 121.237313 189.844091 
L 121.953881 184.917422 
L 122.647335 171.122748 
L 123.363903 154.043627 
L 124.057356 149.719107 
L 124.773924 150.567588 
L 125.490493 149.554884 
L 126.900514 152.346664 
L 127.593967 152.374034 
L 128.310536 154.153109 
L 129.027104 158.532371 
L 129.674327 158.094444 
L 130.390895 155.521628 
L 131.084349 148.241106 
L 131.800917 144.2724 
L 132.49437 145.449326 
L 133.210938 147.611587 
L 133.927507 146.735735 
L 136.74755 153.331997 
L 137.464118 153.824664 
L 138.134456 154.563665 
L 138.851024 154.454183 
L 139.544478 148.706402 
L 140.261046 144.98403 
L 140.954499 146.270438 
L 141.671067 148.295846 
L 142.387636 149.199069 
L 143.081089 149.582255 
L 144.49111 152.702479 
L 145.207679 153.222516 
L 145.924247 152.976182 
L 146.57147 151.443441 
L 147.288038 148.432698 
L 147.981491 134.528543 
L 148.69806 126.700612 
L 149.391513 124.045685 
L 150.108081 126.180575 
L 150.82465 129.820836 
L 151.518103 129.054466 
L 152.234671 132.147319 
L 154.361261 147.940031 
L 155.008484 150.950774 
L 156.418505 137.676137 
L 157.135074 128.014391 
L 157.828527 127.987021 
L 158.545095 129.519762 
L 161.365138 141.562732 
L 162.081707 144.819808 
L 163.445498 147.80318 
L 164.162066 145.832512 
L 164.855519 141.371139 
L 165.572088 135.541247 
L 166.265541 134.36432 
L 166.982109 135.404395 
L 167.698677 137.566655 
L 169.802152 147.064179 
L 171.235289 154.809998 
L 171.905627 157.984963 
L 172.622195 158.149185 
L 173.315648 149.883329 
L 174.032217 138.031952 
L 174.72567 135.459136 
L 175.442238 138.551989 
L 178.978849 156.424851 
L 179.695418 159.435593 
L 180.342641 162.802151 
L 181.059209 164.006448 
L 182.469231 149.144328 
L 183.162684 145.777771 
L 183.879252 147.283142 
L 184.59582 147.283142 
L 186.005842 152.209812 
L 188.779655 163.979077 
L 189.496223 163.568521 
L 190.189676 159.764038 
L 190.906244 154.94685 
L 191.599698 155.302665 
L 192.316266 156.424851 
L 193.726288 160.448298 
L 194.442856 161.679965 
L 195.136309 163.376929 
L 195.852877 166.634005 
L 196.569446 171.834378 
L 197.216669 170.586288 
L 197.933237 171.073481 
L 199.343258 151.8321 
L 200.036712 147.704646 
L 200.75328 146.089793 
L 201.469848 147.244824 
L 202.163301 147.321461 
L 202.87987 148.766617 
L 203.573323 151.317537 
L 205.00646 157.766 
L 205.676798 160.114379 
L 206.393366 157.782422 
L 207.803387 139.509953 
L 208.496841 140.511709 
L 209.213409 142.356473 
L 209.929977 145.712082 
L 211.339999 151.136892 
L 212.75002 158.18203 
L 213.466589 162.041254 
L 214.113812 164.132351 
L 214.83038 163.524729 
L 215.523833 154.640302 
L 216.240401 141.195969 
L 216.933855 137.068514 
L 217.650423 138.951597 
L 219.060444 145.509541 
L 219.777013 147.841498 
L 221.903603 158.915556 
L 222.550825 161.625224 
L 223.267394 161.417209 
L 223.960847 157.891904 
L 224.677415 149.472773 
L 225.370868 147.721068 
L 226.087437 149.795744 
L 228.214027 157.005103 
L 228.90748 158.959349 
L 229.624048 161.778498 
L 230.340616 152.718901 
L 230.987839 165.829315 
L 231.704408 167.323738 
L 232.397861 164.685233 
L 233.114429 155.176761 
L 233.807882 152.625841 
L 234.524451 153.277257 
L 236.651041 158.614482 
L 238.061062 163.097751 
L 238.77763 166.415042 
L 239.447968 171.347185 
L 240.164537 166.984346 
L 241.574558 136.274773 
L 242.268011 135.278491 
L 242.98458 137.544759 
L 243.701148 140.686879 
L 246.521191 155.707747 
L 247.884982 161.258461 
L 248.601551 163.45904 
L 249.295004 164.044766 
L 250.011572 154.311857 
L 250.705025 153.895827 
L 251.421594 155.258873 
L 252.831615 160.946439 
L 253.548183 162.550343 
L 254.958205 167.268998 
L 255.674773 169.03165 
L 256.321996 171.297918 
L 257.038565 173.389016 
L 257.732018 173.115312 
L 258.448586 173.597031 
L 259.142039 175.584121 
L 260.575176 181.528968 
L 261.268629 182.892013 
L 261.985197 184.621822 
L 264.75901 193.867538 
L 265.475579 195.580924 
L 266.169032 192.197944 
L 266.8856 186.718393 
L 267.579053 187.955535 
L 268.295622 188.431779 
L 269.01219 190.774684 
L 269.705643 192.630397 
L 270.422211 193.987968 
L 271.832233 195.865576 
L 272.548801 197.037029 
L 273.219139 198.947481 
L 273.935708 198.816104 
L 274.629161 191.048388 
L 275.345729 180.855657 
L 276.039182 181.972369 
L 276.755751 184.118207 
L 277.472319 186.800505 
L 278.165772 188.831387 
L 278.88234 190.424344 
L 280.292362 192.663241 
L 281.00893 193.062849 
L 281.656153 194.201457 
L 282.372721 194.880242 
L 283.066175 184.857207 
L 283.782743 162.139787 
L 284.476196 148.306795 
L 285.192764 144.880022 
L 286.602786 144.792437 
L 287.319354 145.27963 
L 288.012807 147.589691 
L 288.729376 151.114996 
L 289.445944 152.423301 
L 290.093167 155.116546 
L 290.809735 154.585561 
L 292.219757 132.240378 
L 292.91321 133.35709 
L 293.629778 135.776632 
L 295.0398 139.34573 
L 295.756368 140.911317 
L 297.16639 144.896445 
L 297.882958 145.049719 
L 298.530181 148.022143 
L 299.246749 150.08587 
L 299.940203 150.217248 
L 300.656771 146.248542 
L 301.350224 146.560564 
L 302.066792 148.54218 
L 302.783361 151.016463 
L 303.476814 151.990848 
L 304.193382 152.264552 
L 304.886835 153.123982 
L 305.603404 154.322805 
L 306.319972 155.039909 
L 306.99031 154.777154 
L 308.400332 148.848728 
L 309.1169 144.130074 
L 309.810353 145.438378 
L 310.526921 148.761143 
L 311.24349 151.437967 
L 311.936943 152.472567 
L 312.653511 153.025449 
L 314.063533 155.647532 
L 314.780101 156.698555 
L 315.427324 159.194734 
L 316.143892 160.634416 
L 316.837345 160.147223 
L 317.553914 156.457695 
L 318.963935 160.366186 
L 319.680504 160.535883 
L 320.373957 159.764038 
L 321.090525 159.725719 
L 321.783978 160.043216 
L 322.500547 160.634416 
L 323.217115 159.019563 
L 323.864338 160.015845 
L 324.580906 153.961516 
L 325.274359 143.11737 
L 325.990928 136.214558 
L 326.684381 133.03412 
L 328.117518 136.504685 
L 328.810971 137.046618 
L 329.527539 137.92247 
L 330.937561 140.15042 
L 331.654129 140.867524 
L 332.301352 143.385599 
L 334.427942 153.189671 
L 335.837963 160.459246 
L 337.247985 165.3257 
L 337.964553 167.236153 
L 339.374574 172.578852 
L 340.091143 174.407194 
L 340.761481 176.897899 
L 341.478049 177.138758 
L 342.171502 179.377656 
L 342.888071 183.127399 
L 343.581524 187.851527 
L 345.01466 193.517197 
L 345.708114 195.361961 
L 347.118135 196.445828 
L 347.834703 195.520709 
L 348.551272 195.082783 
L 349.198495 196.352769 
L 349.915063 192.925997 
L 351.325085 175.890669 
L 352.018538 176.635143 
L 352.735106 176.640617 
L 353.451674 176.383336 
L 354.145128 175.775713 
L 356.271717 172.305148 
L 356.988286 171.861748 
L 357.635509 172.305148 
L 358.352077 172.354415 
L 359.04553 171.8508 
L 359.762099 172.053341 
L 361.17212 174.511202 
L 361.888688 174.850594 
L 362.582142 174.396246 
L 363.29871 173.684616 
L 363.992163 172.409156 
L 364.708731 171.659207 
L 365.4253 171.719422 
L 366.072523 172.628119 
L 366.789091 172.5898 
L 367.482544 172.715704 
L 368.199112 173.312379 
L 368.892566 174.182757 
L 369.609134 174.385298 
L 370.325702 173.42186 
L 371.019155 174.259394 
L 371.735724 174.784905 
L 373.145745 172.398208 
L 374.532652 172.004074 
L 375.942673 170.69577 
L 376.659241 170.120992 
L 377.352695 169.830866 
L 378.069263 169.759703 
L 378.785831 170.006036 
L 379.479284 169.44768 
L 380.195853 168.577302 
L 382.322443 167.690501 
L 382.969666 168.418554 
L 383.686234 167.624813 
L 385.096255 167.077405 
L 385.789709 166.239871 
L 386.506277 165.15053 
L 387.222845 164.302048 
L 387.916298 164.104981 
L 389.32632 161.214668 
L 390.042888 160.585149 
L 390.759457 160.765794 
L 391.406679 162.002935 
L 392.123248 162.145261 
L 392.816701 162.106943 
L 394.226723 162.293062 
L 394.943291 161.855135 
L 395.659859 161.170876 
L 396.353312 161.614276 
L 397.069881 161.625224 
L 397.763334 160.968335 
L 398.479902 161.012127 
L 399.843693 163.519255 
L 401.253715 163.097751 
L 401.970283 162.665299 
L 403.380305 161.023076 
L 404.790326 160.174594 
L 405.506895 158.838919 
L 406.200348 157.037948 
L 406.916916 155.866495 
L 407.633484 156.594547 
L 408.303822 159.233052 
L 409.020391 159.988475 
L 409.713844 160.201964 
L 411.123865 159.933734 
L 411.840434 159.145467 
L 412.557002 157.935696 
L 413.250455 156.238732 
L 413.967024 155.018013 
L 415.377045 150.129662 
L 416.093613 149.045795 
L 416.740836 146.828794 
L 417.457405 142.799873 
L 418.150858 142.914829 
L 418.867426 142.690392 
L 419.560879 143.484133 
L 420.277448 144.912867 
L 420.994016 146.01863 
L 422.404037 146.872586 
L 423.097491 147.846972 
L 423.814059 146.084319 
L 424.530627 147.211979 
L 425.894419 150.896033 
L 426.587872 151.810204 
L 427.30444 151.853997 
L 427.997893 150.611381 
L 428.714462 149.828588 
L 429.43103 149.450877 
L 430.124483 149.538462 
L 430.841051 148.531232 
L 431.534505 147.912661 
L 432.251073 146.85069 
L 432.967641 147.047757 
L 433.614864 147.732017 
L 434.331433 149.346869 
L 435.024886 149.631521 
L 435.741454 149.182647 
L 436.434907 147.819602 
L 437.151476 147.168187 
L 437.868044 146.106216 
L 438.561497 145.936519 
L 439.278065 146.358023 
L 439.971519 146.363497 
L 440.688087 145.651867 
L 441.404655 144.573474 
L 442.791562 146.336127 
L 443.485015 145.947467 
L 444.201583 145.903675 
L 444.895036 146.243068 
L 445.611605 147.343357 
L 446.328173 146.489401 
L 447.021626 144.978556 
L 447.738194 142.909355 
L 448.431648 141.852858 
L 449.148216 139.039182 
L 449.864784 139.603012 
L 450.512007 141.228813 
L 451.228575 144.463993 
L 452.638597 148.263002 
L 453.33205 148.711876 
L 454.048618 147.655379 
L 454.765187 145.898201 
L 455.45864 145.96389 
L 456.175208 146.549616 
L 456.868661 145.712082 
L 457.58523 142.827244 
L 458.301798 141.98971 
L 458.949021 141.540835 
L 459.665589 142.799873 
L 460.359043 143.653829 
L 461.075611 143.555296 
L 461.769064 144.349037 
L 462.485632 144.113652 
L 463.202201 143.188533 
L 463.895654 142.498799 
L 464.612222 141.382087 
L 465.305675 138.87496 
L 466.022244 135.853269 
L 466.738812 133.784068 
L 467.386035 134.643498 
L 468.102603 135.207328 
L 468.796057 136.553951 
L 469.512625 137.676137 
L 470.206078 138.026478 
L 470.922646 137.561181 
L 471.639215 137.785619 
L 472.332668 137.884152 
L 473.742689 136.32404 
L 474.459258 135.765684 
L 475.175826 132.952008 
L 475.846164 133.641742 
L 476.562732 134.150831 
L 477.256186 135.251121 
L 478.666207 132.667356 
L 479.382775 132.705675 
L 480.099344 132.519556 
L 480.792797 133.455624 
L 481.509365 133.198342 
L 482.202818 133.636268 
L 483.635955 132.853475 
L 484.283178 134.035876 
L 484.999746 136.066758 
L 486.409768 138.661471 
L 487.103221 139.110345 
L 488.536358 139.225301 
L 489.946379 137.71993 
L 491.356401 134.583283 
L 492.072969 133.904498 
L 492.720192 134.654446 
L 493.43676 136.143395 
L 494.130213 136.893344 
L 494.846782 137.172522 
L 495.540235 137.139677 
L 496.256803 136.641536 
L 496.973372 135.782106 
L 497.666825 134.63255 
L 499.076846 130.631 
L 499.793415 131.474008 
L 500.509983 129.601873 
L 501.157206 128.868347 
L 501.873774 129.048992 
L 502.567227 128.463265 
L 503.283796 124.116848 
L 503.977249 121.28675 
L 504.693817 123.076773 
L 505.410385 125.244508 
L 506.103839 126.826516 
L 506.820407 127.888487 
L 507.51386 128.463265 
L 508.946997 131.014185 
L 509.617335 131.900986 
L 510.333903 131.977623 
L 511.027356 129.881051 
L 511.743925 128.550851 
L 512.437378 128.140295 
L 514.563968 130.488674 
L 515.973989 130.888281 
L 516.690557 131.408319 
L 518.770917 131.840771 
L 519.46437 129.831785 
L 520.180939 127.412243 
L 520.874392 127.576465 
L 521.59096 128.211458 
L 522.307528 128.019865 
L 523.71755 130.417511 
L 525.127571 134.342424 
L 525.84414 133.723853 
L 526.491363 133.871653 
L 527.207931 132.596193 
L 527.901384 130.745955 
L 528.617953 129.667562 
L 529.311406 131.304311 
L 530.027974 131.096296 
L 530.744542 130.379192 
L 531.437996 130.450355 
L 532.154564 129.864629 
L 532.848017 129.525236 
L 533.564585 129.612821 
L 534.281154 129.421229 
L 534.928377 130.521518 
L 535.644945 131.014185 
L 536.338398 131.93383 
L 537.054966 131.599911 
L 537.74842 130.943022 
L 538.464988 129.979585 
L 539.181556 129.853681 
L 539.875009 130.455829 
L 540.591578 129.711355 
L 541.285031 129.174895 
L 542.001599 129.098258 
L 542.718168 128.808132 
L 543.388506 129.333644 
L 544.798527 131.802452 
L 545.515095 133.472046 
L 546.925117 135.448188 
L 547.641685 135.672625 
L 548.335138 135.678099 
L 549.74516 135.349654 
L 550.461728 134.446432 
L 551.178297 133.849757 
L 551.82552 135.059528 
L 552.542088 136.663433 
L 553.235541 139.269093 
L 553.952109 140.467916 
L 554.645563 140.840154 
L 555.362131 141.015324 
L 556.078699 140.56645 
L 557.488721 141.223339 
L 558.182174 140.796361 
L 558.898742 140.139472 
L 559.615311 139.728916 
L 560.979102 142.389317 
L 561.672555 144.009644 
L 562.389123 145.033297 
L 563.082577 146.440134 
L 563.799145 146.806898 
L 564.515713 146.150008 
L 565.209166 146.763105 
L 565.925735 146.960172 
L 566.619188 147.315987 
L 567.335756 146.494875 
L 568.052324 146.128112 
L 568.699547 146.538668 
L 569.416116 147.365253 
L 570.109569 148.39438 
L 571.51959 149.834062 
L 572.236159 150.036603 
L 572.952727 149.987336 
L 573.64618 150.688018 
L 574.362749 150.638751 
L 575.056202 149.751951 
L 575.77277 147.666328 
L 576.489338 146.478453 
L 577.159676 145.99126 
L 577.876245 146.281386 
L 579.286266 148.859676 
L 579.979719 149.489195 
L 580.696288 149.66984 
L 581.412856 149.204543 
L 582.106309 149.073165 
L 582.822878 148.651661 
L 583.516331 147.879817 
L 584.949467 140.752568 
L 585.59669 138.792849 
L 586.313259 139.02276 
L 587.006712 140.539079 
L 587.72328 141.633895 
L 588.416733 142.219621 
L 589.133302 141.557258 
L 589.84987 141.152176 
L 590.543323 141.754324 
L 591.953345 141.371139 
L 592.669913 140.637613 
L 593.386481 140.155894 
L 594.033704 141.502517 
L 595.443726 145.263208 
L 596.160294 146.478453 
L 596.853747 146.724786 
L 597.570316 147.124394 
L 598.286884 147.036809 
L 598.980337 147.365253 
L 599.696905 148.531232 
L 600.390359 148.049513 
L 601.106927 145.958416 
L 601.823495 144.748645 
L 602.470718 144.918341 
L 603.187287 146.336127 
L 603.88074 147.075127 
L 604.597308 146.691942 
L 605.290761 145.750401 
L 606.00733 145.230363 
L 606.723898 143.818051 
L 607.417351 142.810821 
L 608.133919 140.878472 
L 608.827373 140.183264 
L 609.543941 138.798323 
L 610.260509 138.601256 
L 610.930847 138.601256 
L 611.647416 139.181508 
L 612.340869 139.997146 
L 613.057437 140.451494 
L 614.467459 140.675931 
L 615.87748 139.832923 
L 616.594048 139.203404 
L 617.287502 138.289234 
L 618.00407 137.604974 
L 618.720638 137.123255 
L 619.367861 135.705469 
L 620.084429 135.207328 
L 620.777883 135.234699 
L 621.494451 133.942816 
L 623.621041 132.032364 
L 624.314494 129.935792 
L 625.031062 128.205984 
L 625.724515 127.198754 
L 627.157652 127.521724 
L 627.804875 127.406768 
L 628.521443 128.238828 
L 629.214897 128.868347 
L 629.931465 128.736969 
L 630.624918 128.408525 
L 631.341486 127.384872 
L 632.058055 127.122116 
L 632.751508 126.585657 
L 633.468076 127.116642 
L 634.161529 128.353784 
L 635.594666 127.93228 
L 636.241889 128.780762 
L 636.958457 130.395615 
L 637.651911 131.178408 
L 638.368479 131.709393 
L 639.061932 131.227674 
L 639.7785 130.428459 
L 640.495069 129.032569 
L 641.188522 128.583695 
L 641.90509 128.326413 
L 642.598543 127.581939 
L 643.315112 127.406768 
L 644.03168 127.66405 
L 645.418586 130.406563 
L 646.11204 131.014185 
L 646.828608 132.973905 
L 647.522061 135.229225 
L 648.238629 137.041144 
L 649.648651 137.041144 
L 651.058672 137.336744 
L 651.775241 136.707225 
L 652.491809 137.06304 
L 653.139032 138.125011 
L 655.265622 144.453044 
L 655.959075 145.733978 
L 656.675643 146.177379 
L 657.392212 147.277668 
L 658.085665 147.23935 
L 658.802233 147.68275 
L 659.495686 147.600639 
L 660.212255 147.288616 
L 660.928823 148.076883 
L 662.986067 155.800806 
L 663.702636 157.005103 
L 664.396089 158.439311 
L 665.829226 159.616238 
L 666.522679 159.906364 
L 667.239247 160.776742 
L 667.9327 161.417209 
L 669.365837 160.163646 
L 670.01306 160.891698 
L 670.729628 163.530203 
L 671.423081 165.495397 
L 672.833103 167.000768 
L 673.549671 166.267241 
L 674.959693 167.416798 
L 675.676261 168.341917 
L 676.369714 168.538983 
L 677.086282 167.843776 
L 677.802851 167.99705 
L 678.473189 168.768895 
L 679.189757 170.805251 
L 679.88321 173.695564 
L 680.599779 175.211883 
L 681.293232 175.868773 
L 682.0098 175.354209 
L 682.726368 175.79761 
L 683.419822 174.93818 
L 684.13639 173.460179 
L 684.829843 173.525868 
L 685.546411 169.480525 
L 686.910203 163.864122 
L 687.626771 165.6213 
L 688.320224 167.022664 
L 689.730246 168.599198 
L 690.446814 168.270754 
L 691.856836 169.694014 
L 692.573404 170.646503 
L 693.983425 168.352865 
L 694.699994 167.400375 
L 695.347217 168.341917 
L 696.063785 170.27974 
L 696.757238 172.907297 
L 697.473807 174.483831 
L 698.16726 175.491061 
L 698.883828 175.425372 
L 699.600396 176.071313 
L 700.29385 175.64981 
L 701.010418 175.376106 
L 702.420439 173.777675 
L 703.137008 173.887157 
L 703.784231 175.835928 
L 705.194252 181.255264 
L 706.604274 183.614592 
L 707.320842 183.472266 
L 708.03741 183.899244 
L 708.730863 183.959459 
L 709.447432 183.811658 
L 710.140885 181.846465 
L 710.857453 180.943242 
L 711.574022 180.68596 
L 712.24436 181.386642 
L 712.960928 184.145577 
L 713.654381 186.094349 
L 714.370949 187.227483 
L 715.064403 187.534031 
L 716.497539 186.800505 
L 717.190992 185.607156 
L 717.907561 185.941074 
L 718.601014 183.94851 
L 719.317582 183.50511 
L 720.034151 183.696703 
L 720.681374 185.902756 
L 721.397942 189.263839 
L 722.091395 191.639589 
L 722.807963 192.548285 
L 723.501417 193.128538 
L 724.217985 193.385819 
L 724.934553 193.41319 
L 725.628006 193.643101 
L 726.344575 193.500775 
L 727.038028 191.978981 
L 728.471165 188.196394 
L 729.834956 191.048388 
L 730.528409 193.073797 
L 731.244977 195.810835 
L 731.938431 197.086295 
L 732.654999 197.11914 
L 733.371567 198.816104 
L 734.06502 199.609845 
L 734.781589 199.839756 
L 735.475042 197.453058 
L 736.19161 194.480635 
L 736.908178 192.263633 
L 737.555401 191.929715 
L 738.27197 192.274582 
L 738.965423 191.103129 
L 740.375444 186.0834 
L 741.092013 182.590939 
L 741.808581 181.173153 
L 743.218603 175.819506 
L 743.912056 171.982178 
L 744.628624 171.243178 
L 745.345192 171.856274 
L 746.01553 173.854312 
L 747.425552 179.344812 
L 748.14212 181.282635 
L 748.835573 181.238842 
L 749.552142 180.888501 
L 750.26871 181.654872 
L 750.962163 180.921346 
L 751.678732 180.516264 
L 752.372185 178.808352 
L 753.088753 177.735433 
L 753.805321 177.833966 
L 754.452544 179.777264 
L 755.169113 182.886539 
L 755.862566 185.377244 
L 756.579134 186.680075 
L 757.272587 186.712919 
L 757.989156 186.597964 
L 758.705724 186.165512 
L 759.399177 187.742046 
L 760.115746 186.47206 
L 760.809199 186.269519 
L 761.525767 185.163755 
L 762.242335 185.607156 
L 764.29958 196.818066 
L 765.016148 199.445623 
L 765.709601 200.573282 
L 766.42617 200.053245 
L 767.142738 200.173675 
L 767.836191 199.37446 
L 768.552759 198.947481 
L 769.246213 196.637421 
L 769.962781 196.243287 
L 770.679349 195.986006 
L 771.326572 198.235851 
L 772.043141 201.432712 
L 772.736594 202.779335 
L 773.453162 203.594973 
L 774.146615 201.914431 
L 774.863184 201.826846 
L 775.579752 201.941802 
L 776.273205 201.454609 
L 776.989773 201.870639 
L 778.399795 198.887267 
L 779.116363 198.619037 
L 780.50327 203.020195 
L 781.913291 205.478055 
L 782.606744 204.870433 
L 783.323313 203.545706 
L 784.039881 203.512862 
L 784.733334 202.905239 
L 785.449902 202.790284 
L 786.143356 200.452853 
L 786.859924 197.573488 
L 787.576492 195.54808 
L 788.223715 196.380139 
L 789.633737 200.047771 
L 790.350305 201.164483 
L 791.043758 201.432712 
L 791.760326 200.11346 
L 792.476895 199.779541 
L 793.170348 199.642689 
L 793.886916 200.38169 
L 794.58037 199.52226 
L 795.296938 196.796169 
L 796.013506 196.40751 
L 796.660729 196.462251 
L 797.377297 198.443866 
L 798.070751 200.901727 
L 798.787319 202.647958 
L 799.480772 202.308565 
L 800.19734 201.514824 
L 800.913909 201.837794 
L 801.607362 201.71189 
L 802.32393 201.821372 
L 803.017383 200.102512 
L 803.733952 197.754133 
L 805.097743 195.296272 
L 805.814311 196.002428 
L 806.507765 197.354525 
L 807.917786 199.358037 
L 808.634354 199.01317 
L 810.044376 199.472993 
L 810.760944 198.794207 
L 811.454397 195.15942 
L 812.170966 192.865782 
L 812.887534 191.995404 
L 813.557872 190.725418 
L 814.27444 191.929715 
L 814.967894 194.705072 
L 815.684462 197.031555 
L 816.377915 198.367229 
L 817.094483 198.6902 
L 817.811052 199.144548 
L 818.504505 199.872601 
L 819.221073 200.316001 
L 819.914526 198.86537 
L 820.631095 197.644651 
L 821.347663 196.927547 
L 821.994886 198.498607 
L 822.711454 201.284912 
L 823.404907 204.459877 
L 824.121476 207.049116 
L 824.814929 207.662212 
L 825.531497 207.492516 
L 826.248066 207.64579 
L 826.941519 208.143931 
L 827.658087 209.129265 
L 828.35154 208.351946 
L 829.068109 207.96876 
L 829.784677 208.138457 
L 830.4319 211.034244 
L 831.841921 218.58847 
L 832.55849 221.144864 
L 833.251943 222.29442 
L 833.968511 220.45513 
L 834.68508 220.044574 
L 835.378533 219.360315 
L 836.095101 221.144864 
L 837.505123 218.982604 
L 838.221691 218.955233 
L 838.868914 219.497167 
L 839.585482 217.493655 
L 840.278935 214.981053 
L 840.995504 213.826023 
L 842.405525 208.92125 
L 843.122093 208.663968 
L 844.532115 209.21685 
L 845.225568 207.372086 
L 846.658705 202.806706 
L 847.329043 203.447173 
L 848.045611 205.149611 
L 849.455633 210.481362 
L 850.149086 211.034244 
L 850.865654 210.120073 
L 851.582222 209.818999 
L 852.275676 211.182044 
L 852.992244 211.362688 
L 853.685697 210.04891 
L 854.402265 208.362894 
L 855.118834 207.372086 
L 855.766057 208.33005 
L 856.482625 210.629162 
L 857.176078 213.481156 
L 857.892647 214.597868 
L 858.5861 215.05769 
L 859.302668 214.291319 
L 860.019236 213.355252 
L 860.71269 213.180082 
L 861.429258 212.446556 
L 862.839279 208.910302 
L 863.555848 208.488798 
L 863.555848 208.488798 
" clip-path="url(#p6593d145a8)" style="fill: none; stroke: #1f77b4; stroke-width: 2.8; stroke-linecap: square"/>
   </g>
   <g id="patch_3">
    <path d="M 56.840937 416.197178 
L 56.840937 115.812673 
" style="fill: none; stroke: #000000; stroke-width: 0.8; stroke-linejoin: miter; stroke-linecap: square"/>
   </g>
   <g id="patch_4">
    <path d="M 56.840937 416.197178 
L 901.970843 416.197178 
" style="fill: none; stroke: #000000; stroke-width: 0.8; stroke-linejoin: miter; stroke-linecap: square"/>
   </g>
   <g id="patch_5">
    <path d="M 132.034455 421.601564 
Q 114.906049 415.146999 97.777644 408.692433 
" style="fill: none; stroke: #000000; stroke-width: 1.2; stroke-linecap: round"/>
   </g>
   <g id="text_18">
    <!-- Historic low -->
    <g transform="translate(135.903156 425.5845) scale(0.1 -0.1)">
     <defs>
      <path id="DejaVuSans-48" d="M 628 4666 
L 1259 4666 
L 1259 2753 
L 3553 2753 
L 3553 4666 
L 4184 4666 
L 4184 0 
L 3553 0 
L 3553 2222 
L 1259 2222 
L 1259 0 
L 628 0 
L 628 4666 
z
" transform="scale(0.015625)"/>
      <path id="DejaVuSans-73" d="M 2834 3397 
L 2834 2853 
Q 2591 2978 2328 3040 
Q 2066 3103 1784 3103 
Q 1356 3103 1142 2972 
Q 928 2841 928 2578 
Q 928 2378 1081 2264 
Q 1234 2150 1697 2047 
L 1894 2003 
Q 2506 1872 2764 1633 
Q 3022 1394 3022 966 
Q 3022 478 2636 193 
Q 2250 -91 1575 -91 
Q 1294 -91 989 -36 
Q 684 19 347 128 
L 347 722 
Q 666 556 975 473 
Q 1284 391 1588 391 
Q 1994 391 2212 530 
Q 2431 669 2431 922 
Q 2431 1156 2273 1281 
Q 2116 1406 1581 1522 
L 1381 1569 
Q 847 1681 609 1914 
Q 372 2147 372 2553 
Q 372 3047 722 3315 
Q 1072 3584 1716 3584 
Q 2034 3584 2315 3537 
Q 2597 3491 2834 3397 
z
" transform="scale(0.015625)"/>
      <path id="DejaVuSans-72" d="M 2631 2963 
Q 2534 3019 2420 3045 
Q 2306 3072 2169 3072 
Q 1681 3072 1420 2755 
Q 1159 2438 1159 1844 
L 1159 0 
L 581 0 
L 581 3500 
L 1159 3500 
L 1159 2956 
Q 1341 3275 1631 3429 
Q 1922 3584 2338 3584 
Q 2397 3584 2469 3576 
Q 2541 3569 2628 3553 
L 2631 2963 
z
" transform="scale(0.015625)"/>
      <path id="DejaVuSans-63" d="M 3122 3366 
L 3122 2828 
Q 2878 2963 2633 3030 
Q 2388 3097 2138 3097 
Q 1578 3097 1268 2742 
Q 959 2388 959 1747 
Q 959 1106 1268 751 
Q 1578 397 2138 397 
Q 2388 397 2633 464 
Q 2878 531 3122 666 
L 3122 134 
Q 2881 22 2623 -34 
Q 2366 -91 2075 -91 
Q 1284 -91 818 406 
Q 353 903 353 1747 
Q 353 2603 823 3093 
Q 1294 3584 2113 3584 
Q 2378 3584 2631 3529 
Q 2884 3475 3122 3366 
z
" transform="scale(0.015625)"/>
      <path id="DejaVuSans-77" d="M 269 3500 
L 844 3500 
L 1563 769 
L 2278 3500 
L 2956 3500 
L 3675 769 
L 4391 3500 
L 4966 3500 
L 4050 0 
L 3372 0 
L 2619 2869 
L 1863 0 
L 1184 0 
L 269 3500 
z
" transform="scale(0.015625)"/>
     </defs>
     <use xlink:href="#DejaVuSans-48"/>
     <use xlink:href="#DejaVuSans-69" transform="translate(75.195312 0)"/>
     <use xlink:href="#DejaVuSans-73" transform="translate(102.978516 0)"/>
     <use xlink:href="#DejaVuSans-74" transform="translate(155.078125 0)"/>
     <use xlink:href="#DejaVuSans-6f" transform="translate(194.287109 0)"/>
     <use xlink:href="#DejaVuSans-72" transform="translate(255.46875 0)"/>
     <use xlink:href="#DejaVuSans-69" transform="translate(296.582031 0)"/>
     <use xlink:href="#DejaVuSans-63" transform="translate(324.365234 0)"/>
     <use xlink:href="#DejaVuSans-20" transform="translate(379.345703 0)"/>
     <use xlink:href="#DejaVuSans-6c" transform="translate(411.132812 0)"/>
     <use xlink:href="#DejaVuSans-6f" transform="translate(438.916016 0)"/>
     <use xlink:href="#DejaVuSans-77" transform="translate(500.097656 0)"/>
    </g>
    <!-- Mar 1935 -->
    <g transform="translate(135.903156 436.782312) scale(0.1 -0.1)">
     <defs>
      <path id="DejaVuSans-4d" d="M 628 4666 
L 1569 4666 
L 2759 1491 
L 3956 4666 
L 4897 4666 
L 4897 0 
L 4281 0 
L 4281 4097 
L 3078 897 
L 2444 897 
L 1241 4097 
L 1241 0 
L 628 0 
L 628 4666 
z
" transform="scale(0.015625)"/>
     </defs>
     <use xlink:href="#DejaVuSans-4d"/>
     <use xlink:href="#DejaVuSans-61" transform="translate(86.279297 0)"/>
     <use xlink:href="#DejaVuSans-72" transform="translate(147.558594 0)"/>
     <use xlink:href="#DejaVuSans-20" transform="translate(188.671875 0)"/>
     <use xlink:href="#DejaVuSans-31" transform="translate(220.458984 0)"/>
     <use xlink:href="#DejaVuSans-39" transform="translate(284.082031 0)"/>
     <use xlink:href="#DejaVuSans-33" transform="translate(347.705078 0)"/>
     <use xlink:href="#DejaVuSans-35" transform="translate(411.328125 0)"/>
    </g>
    <!-- 701.70 ft -->
    <g transform="translate(135.903156 447.980125) scale(0.1 -0.1)">
     <defs>
      <path id="DejaVuSans-2e" d="M 684 794 
L 1344 794 
L 1344 0 
L 684 0 
L 684 794 
z
" transform="scale(0.015625)"/>
     </defs>
     <use xlink:href="#DejaVuSans-37"/>
     <use xlink:href="#DejaVuSans-30" transform="translate(63.623047 0)"/>
     <use xlink:href="#DejaVuSans-31" transform="translate(127.246094 0)"/>
     <use xlink:href="#DejaVuSans-2e" transform="translate(190.869141 0)"/>
     <use xlink:href="#DejaVuSans-37" transform="translate(222.65625 0)"/>
     <use xlink:href="#DejaVuSans-30" transform="translate(286.279297 0)"/>
     <use xlink:href="#DejaVuSans-20" transform="translate(349.902344 0)"/>
     <use xlink:href="#DejaVuSans-66" transform="translate(381.689453 0)"/>
     <use xlink:href="#DejaVuSans-74" transform="translate(415.144531 0)"/>
    </g>
   </g>
   <g id="patch_6">
    <path d="M 777.456343 180.453874 
Q 819.556237 194.162052 861.65613 207.870229 
" style="fill: none; stroke: #000000; stroke-width: 1.2; stroke-linecap: round"/>
   </g>
   <g id="text_19">
    <!-- Latest reading -->
    <g transform="translate(701.49491 159.013485) scale(0.1 -0.1)">
     <defs>
      <path id="DejaVuSans-4c" d="M 628 4666 
L 1259 4666 
L 1259 531 
L 3531 531 
L 3531 0 
L 628 0 
L 628 4666 
z
" transform="scale(0.015625)"/>
      <path id="DejaVuSans-64" d="M 2906 2969 
L 2906 4863 
L 3481 4863 
L 3481 0 
L 2906 0 
L 2906 525 
Q 2725 213 2448 61 
Q 2172 -91 1784 -91 
Q 1150 -91 751 415 
Q 353 922 353 1747 
Q 353 2572 751 3078 
Q 1150 3584 1784 3584 
Q 2172 3584 2448 3432 
Q 2725 3281 2906 2969 
z
M 947 1747 
Q 947 1113 1208 752 
Q 1469 391 1925 391 
Q 2381 391 2643 752 
Q 2906 1113 2906 1747 
Q 2906 2381 2643 2742 
Q 2381 3103 1925 3103 
Q 1469 3103 1208 2742 
Q 947 2381 947 1747 
z
" transform="scale(0.015625)"/>
      <path id="DejaVuSans-67" d="M 2906 1791 
Q 2906 2416 2648 2759 
Q 2391 3103 1925 3103 
Q 1463 3103 1205 2759 
Q 947 2416 947 1791 
Q 947 1169 1205 825 
Q 1463 481 1925 481 
Q 2391 481 2648 825 
Q 2906 1169 2906 1791 
z
M 3481 434 
Q 3481 -459 3084 -895 
Q 2688 -1331 1869 -1331 
Q 1566 -1331 1297 -1286 
Q 1028 -1241 775 -1147 
L 775 -588 
Q 1028 -725 1275 -790 
Q 1522 -856 1778 -856 
Q 2344 -856 2625 -561 
Q 2906 -266 2906 331 
L 2906 616 
Q 2728 306 2450 153 
Q 2172 0 1784 0 
Q 1141 0 747 490 
Q 353 981 353 1791 
Q 353 2603 747 3093 
Q 1141 3584 1784 3584 
Q 2172 3584 2450 3431 
Q 2728 3278 2906 2969 
L 2906 3500 
L 3481 3500 
L 3481 434 
z
" transform="scale(0.015625)"/>
     </defs>
     <use xlink:href="#DejaVuSans-4c"/>
     <use xlink:href="#DejaVuSans-61" transform="translate(55.712891 0)"/>
     <use xlink:href="#DejaVuSans-74" transform="translate(116.992188 0)"/>
     <use xlink:href="#DejaVuSans-65" transform="translate(156.201172 0)"/>
     <use xlink:href="#DejaVuSans-73" transform="translate(217.724609 0)"/>
     <use xlink:href="#DejaVuSans-74" transform="translate(269.824219 0)"/>
     <use xlink:href="#DejaVuSans-20" transform="translate(309.033203 0)"/>
     <use xlink:href="#DejaVuSans-72" transform="translate(340.820312 0)"/>
     <use xlink:href="#DejaVuSans-65" transform="translate(379.683594 0)"/>
     <use xlink:href="#DejaVuSans-61" transform="translate(441.207031 0)"/>
     <use xlink:href="#DejaVuSans-64" transform="translate(502.486328 0)"/>
     <use xlink:href="#DejaVuSans-69" transform="translate(565.962891 0)"/>
     <use xlink:href="#DejaVuSans-6e" transform="translate(593.746094 0)"/>
     <use xlink:href="#DejaVuSans-67" transform="translate(657.125 0)"/>
    </g>
    <!-- Feb 2026 -->
    <g transform="translate(727.224598 170.211298) scale(0.1 -0.1)">
     <defs>
      <path id="DejaVuSans-46" d="M 628 4666 
L 3309 4666 
L 3309 4134 
L 1259 4134 
L 1259 2759 
L 3109 2759 
L 3109 2228 
L 1259 2228 
L 1259 0 
L 628 0 
L 628 4666 
z
" transform="scale(0.015625)"/>
      <path id="DejaVuSans-62" d="M 3116 1747 
Q 3116 2381 2855 2742 
Q 2594 3103 2138 3103 
Q 1681 3103 1420 2742 
Q 1159 2381 1159 1747 
Q 1159 1113 1420 752 
Q 1681 391 2138 391 
Q 2594 391 2855 752 
Q 3116 1113 3116 1747 
z
M 1159 2969 
Q 1341 3281 1617 3432 
Q 1894 3584 2278 3584 
Q 2916 3584 3314 3078 
Q 3713 2572 3713 1747 
Q 3713 922 3314 415 
Q 2916 -91 2278 -91 
Q 1894 -91 1617 61 
Q 1341 213 1159 525 
L 1159 0 
L 581 0 
L 581 4863 
L 1159 4863 
L 1159 2969 
z
" transform="scale(0.015625)"/>
     </defs>
     <use xlink:href="#DejaVuSans-46"/>
     <use xlink:href="#DejaVuSans-65" transform="translate(52.019531 0)"/>
     <use xlink:href="#DejaVuSans-62" transform="translate(113.542969 0)"/>
     <use xlink:href="#DejaVuSans-20" transform="translate(177.019531 0)"/>
     <use xlink:href="#DejaVuSans-32" transform="translate(208.806641 0)"/>
     <use xlink:href="#DejaVuSans-30" transform="translate(272.429688 0)"/>
     <use xlink:href="#DejaVuSans-32" transform="translate(336.052734 0)"/>
     <use xlink:href="#DejaVuSans-36" transform="translate(399.675781 0)"/>
    </g>
    <!-- 1066.14 ft -->
    <g transform="translate(721.758973 181.40911) scale(0.1 -0.1)">
     <use xlink:href="#DejaVuSans-31"/>
     <use xlink:href="#DejaVuSans-30" transform="translate(63.623047 0)"/>
     <use xlink:href="#DejaVuSans-36" transform="translate(127.246094 0)"/>
     <use xlink:href="#DejaVuSans-36" transform="translate(190.869141 0)"/>
     <use xlink:href="#DejaVuSans-2e" transform="translate(254.492188 0)"/>
     <use xlink:href="#DejaVuSans-31" transform="translate(286.279297 0)"/>
     <use xlink:href="#DejaVuSans-34" transform="translate(349.902344 0)"/>
     <use xlink:href="#DejaVuSans-20" transform="translate(413.525391 0)"/>
     <use xlink:href="#DejaVuSans-66" transform="translate(445.3125 0)"/>
     <use xlink:href="#DejaVuSans-74" transform="translate(478.767578 0)"/>
    </g>
   </g>
   <g id="patch_7">
    <path d="M 474.172171 94.62115 
Q 488.330674 107.288287 502.489178 119.955423 
" style="fill: none; stroke: #000000; stroke-linecap: round"/>
   </g>
   <g id="text_20">
    <!-- Historic high -->
    <g transform="translate(421.063186 66.811438) scale(0.1 -0.1)">
     <defs>
      <path id="DejaVuSans-68" d="M 3513 2113 
L 3513 0 
L 2938 0 
L 2938 2094 
Q 2938 2591 2744 2837 
Q 2550 3084 2163 3084 
Q 1697 3084 1428 2787 
Q 1159 2491 1159 1978 
L 1159 0 
L 581 0 
L 581 4863 
L 1159 4863 
L 1159 2956 
Q 1366 3272 1645 3428 
Q 1925 3584 2291 3584 
Q 2894 3584 3203 3211 
Q 3513 2838 3513 2113 
z
" transform="scale(0.015625)"/>
     </defs>
     <use xlink:href="#DejaVuSans-48"/>
     <use xlink:href="#DejaVuSans-69" transform="translate(75.195312 0)"/>
     <use xlink:href="#DejaVuSans-73" transform="translate(102.978516 0)"/>
     <use xlink:href="#DejaVuSans-74" transform="translate(155.078125 0)"/>
     <use xlink:href="#DejaVuSans-6f" transform="translate(194.287109 0)"/>
     <use xlink:href="#DejaVuSans-72" transform="translate(255.46875 0)"/>
     <use xlink:href="#DejaVuSans-69" transform="translate(296.582031 0)"/>
     <use xlink:href="#DejaVuSans-63" transform="translate(324.365234 0)"/>
     <use xlink:href="#DejaVuSans-20" transform="translate(379.345703 0)"/>
     <use xlink:href="#DejaVuSans-68" transform="translate(411.132812 0)"/>
     <use xlink:href="#DejaVuSans-69" transform="translate(474.511719 0)"/>
     <use xlink:href="#DejaVuSans-67" transform="translate(502.294922 0)"/>
     <use xlink:href="#DejaVuSans-68" transform="translate(565.771484 0)"/>
    </g>
    <!-- Jul 1983 -->
    <g transform="translate(443.283499 78.00925) scale(0.1 -0.1)">
     <defs>
      <path id="DejaVuSans-4a" d="M 628 4666 
L 1259 4666 
L 1259 325 
Q 1259 -519 939 -900 
Q 619 -1281 -91 -1281 
L -331 -1281 
L -331 -750 
L -134 -750 
Q 284 -750 456 -515 
Q 628 -281 628 325 
L 628 4666 
z
" transform="scale(0.015625)"/>
      <path id="DejaVuSans-75" d="M 544 1381 
L 544 3500 
L 1119 3500 
L 1119 1403 
Q 1119 906 1312 657 
Q 1506 409 1894 409 
Q 2359 409 2629 706 
Q 2900 1003 2900 1516 
L 2900 3500 
L 3475 3500 
L 3475 0 
L 2900 0 
L 2900 538 
Q 2691 219 2414 64 
Q 2138 -91 1772 -91 
Q 1169 -91 856 284 
Q 544 659 544 1381 
z
M 1991 3584 
L 1991 3584 
z
" transform="scale(0.015625)"/>
     </defs>
     <use xlink:href="#DejaVuSans-4a"/>
     <use xlink:href="#DejaVuSans-75" transform="translate(29.492188 0)"/>
     <use xlink:href="#DejaVuSans-6c" transform="translate(92.871094 0)"/>
     <use xlink:href="#DejaVuSans-20" transform="translate(120.654297 0)"/>
     <use xlink:href="#DejaVuSans-31" transform="translate(152.441406 0)"/>
     <use xlink:href="#DejaVuSans-39" transform="translate(216.064453 0)"/>
     <use xlink:href="#DejaVuSans-38" transform="translate(279.6875 0)"/>
     <use xlink:href="#DejaVuSans-33" transform="translate(343.310547 0)"/>
    </g>
    <!-- 1225.44 ft -->
    <g transform="translate(432.180374 89.207063) scale(0.1 -0.1)">
     <use xlink:href="#DejaVuSans-31"/>
     <use xlink:href="#DejaVuSans-32" transform="translate(63.623047 0)"/>
     <use xlink:href="#DejaVuSans-32" transform="translate(127.246094 0)"/>
     <use xlink:href="#DejaVuSans-35" transform="translate(190.869141 0)"/>
     <use xlink:href="#DejaVuSans-2e" transform="translate(254.492188 0)"/>
     <use xlink:href="#DejaVuSans-34" transform="translate(286.279297 0)"/>
     <use xlink:href="#DejaVuSans-34" transform="translate(349.902344 0)"/>
     <use xlink:href="#DejaVuSans-20" transform="translate(413.525391 0)"/>
     <use xlink:href="#DejaVuSans-66" transform="translate(445.3125 0)"/>
     <use xlink:href="#DejaVuSans-74" transform="translate(478.767578 0)"/>
    </g>
   </g>
   <g id="PathCollection_1">
    <defs>
     <path id="mf9f0943566" d="M 0 3.708099 
C 0.983399 3.708099 1.926654 3.317391 2.622022 2.622022 
C 3.317391 1.926654 3.708099 0.983399 3.708099 0 
C 3.708099 -0.983399 3.317391 -1.926654 2.622022 -2.622022 
C 1.926654 -3.317391 0.983399 -3.708099 0 -3.708099 
C -0.983399 -3.708099 -1.926654 -3.317391 -2.622022 -2.622022 
C -3.317391 -1.926654 -3.708099 -0.983399 -3.708099 0 
C -3.708099 0.983399 -3.317391 1.926654 -2.622022 2.622022 
C -1.926654 3.317391 -0.983399 3.708099 0 3.708099 
z
" style="stroke: #1f77b4"/>
    </defs>
    <g clip-path="url(#p6593d145a8)">
     <use xlink:href="#mf9f0943566" x="95.903156" y="407.986062" style="fill: #1f77b4; stroke: #1f77b4"/>
    </g>
   </g>
   <g id="PathCollection_2">
    <defs>
     <path id="m87ce83063f" d="M 0 3.162278 
C 0.838646 3.162278 1.643056 2.82908 2.236068 2.236068 
C 2.82908 1.643056 3.162278 0.838646 3.162278 0 
C 3.162278 -0.838646 2.82908 -1.643056 2.236068 -2.236068 
C 1.643056 -2.82908 0.838646 -3.162278 0 -3.162278 
C -0.838646 -3.162278 -1.643056 -2.82908 -2.236068 -2.236068 
C -2.82908 -1.643056 -3.162278 -0.838646 -3.162278 0 
C -3.162278 0.838646 -2.82908 1.643056 -2.236068 2.236068 
C -1.643056 2.82908 -0.838646 3.162278 0 3.162278 
z
" style="stroke: #ff7f0e"/>
    </defs>
    <g clip-path="url(#p6593d145a8)">
     <use xlink:href="#m87ce83063f" x="863.555848" y="208.488798" style="fill: #ff7f0e; stroke: #ff7f0e"/>
    </g>
   </g>
  </g>
  <g id="text_21">
   <!-- Lake Mead’s water level has fallen dramatically -->
   <g transform="translate(15.600937 22.396875) scale(0.2 -0.2)">
    <defs>
     <path id="DejaVuSans-Bold-4c" d="M 588 4666 
L 1791 4666 
L 1791 909 
L 3903 909 
L 3903 0 
L 588 0 
L 588 4666 
z
" transform="scale(0.015625)"/>
     <path id="DejaVuSans-Bold-61" d="M 2106 1575 
Q 1756 1575 1579 1456 
Q 1403 1338 1403 1106 
Q 1403 894 1545 773 
Q 1688 653 1941 653 
Q 2256 653 2472 879 
Q 2688 1106 2688 1447 
L 2688 1575 
L 2106 1575 
z
M 3816 1997 
L 3816 0 
L 2688 0 
L 2688 519 
Q 2463 200 2181 54 
Q 1900 -91 1497 -91 
Q 953 -91 614 226 
Q 275 544 275 1050 
Q 275 1666 698 1953 
Q 1122 2241 2028 2241 
L 2688 2241 
L 2688 2328 
Q 2688 2594 2478 2717 
Q 2269 2841 1825 2841 
Q 1466 2841 1156 2769 
Q 847 2697 581 2553 
L 581 3406 
Q 941 3494 1303 3539 
Q 1666 3584 2028 3584 
Q 2975 3584 3395 3211 
Q 3816 2838 3816 1997 
z
" transform="scale(0.015625)"/>
     <path id="DejaVuSans-Bold-6b" d="M 538 4863 
L 1656 4863 
L 1656 2216 
L 2944 3500 
L 4244 3500 
L 2534 1894 
L 4378 0 
L 3022 0 
L 1656 1459 
L 1656 0 
L 538 0 
L 538 4863 
z
" transform="scale(0.015625)"/>
     <path id="DejaVuSans-Bold-65" d="M 4031 1759 
L 4031 1441 
L 1416 1441 
Q 1456 1047 1700 850 
Q 1944 653 2381 653 
Q 2734 653 3104 758 
Q 3475 863 3866 1075 
L 3866 213 
Q 3469 63 3072 -14 
Q 2675 -91 2278 -91 
Q 1328 -91 801 392 
Q 275 875 275 1747 
Q 275 2603 792 3093 
Q 1309 3584 2216 3584 
Q 3041 3584 3536 3087 
Q 4031 2591 4031 1759 
z
M 2881 2131 
Q 2881 2450 2695 2645 
Q 2509 2841 2209 2841 
Q 1884 2841 1681 2658 
Q 1478 2475 1428 2131 
L 2881 2131 
z
" transform="scale(0.015625)"/>
     <path id="DejaVuSans-Bold-20" transform="scale(0.015625)"/>
     <path id="DejaVuSans-Bold-4d" d="M 588 4666 
L 2119 4666 
L 3181 2169 
L 4250 4666 
L 5778 4666 
L 5778 0 
L 4641 0 
L 4641 3413 
L 3566 897 
L 2803 897 
L 1728 3413 
L 1728 0 
L 588 0 
L 588 4666 
z
" transform="scale(0.015625)"/>
     <path id="DejaVuSans-Bold-64" d="M 2919 2988 
L 2919 4863 
L 4044 4863 
L 4044 0 
L 2919 0 
L 2919 506 
Q 2688 197 2409 53 
Q 2131 -91 1766 -91 
Q 1119 -91 703 423 
Q 288 938 288 1747 
Q 288 2556 703 3070 
Q 1119 3584 1766 3584 
Q 2128 3584 2408 3439 
Q 2688 3294 2919 2988 
z
M 2181 722 
Q 2541 722 2730 984 
Q 2919 1247 2919 1747 
Q 2919 2247 2730 2509 
Q 2541 2772 2181 2772 
Q 1825 2772 1636 2509 
Q 1447 2247 1447 1747 
Q 1447 1247 1636 984 
Q 1825 722 2181 722 
z
" transform="scale(0.015625)"/>
     <path id="DejaVuSans-Bold-2019" d="M 716 4666 
L 1778 4666 
L 1778 3775 
L 1069 2675 
L 403 2675 
L 716 3775 
L 716 4666 
z
" transform="scale(0.015625)"/>
     <path id="DejaVuSans-Bold-73" d="M 3272 3391 
L 3272 2541 
Q 2913 2691 2578 2766 
Q 2244 2841 1947 2841 
Q 1628 2841 1473 2761 
Q 1319 2681 1319 2516 
Q 1319 2381 1436 2309 
Q 1553 2238 1856 2203 
L 2053 2175 
Q 2913 2066 3209 1816 
Q 3506 1566 3506 1031 
Q 3506 472 3093 190 
Q 2681 -91 1863 -91 
Q 1516 -91 1145 -36 
Q 775 19 384 128 
L 384 978 
Q 719 816 1070 734 
Q 1422 653 1784 653 
Q 2113 653 2278 743 
Q 2444 834 2444 1013 
Q 2444 1163 2330 1236 
Q 2216 1309 1875 1350 
L 1678 1375 
Q 931 1469 631 1722 
Q 331 1975 331 2491 
Q 331 3047 712 3315 
Q 1094 3584 1881 3584 
Q 2191 3584 2531 3537 
Q 2872 3491 3272 3391 
z
" transform="scale(0.015625)"/>
     <path id="DejaVuSans-Bold-77" d="M 225 3500 
L 1313 3500 
L 1900 1088 
L 2491 3500 
L 3425 3500 
L 4013 1113 
L 4603 3500 
L 5691 3500 
L 4769 0 
L 3547 0 
L 2956 2406 
L 2369 0 
L 1147 0 
L 225 3500 
z
" transform="scale(0.015625)"/>
     <path id="DejaVuSans-Bold-74" d="M 1759 4494 
L 1759 3500 
L 2913 3500 
L 2913 2700 
L 1759 2700 
L 1759 1216 
Q 1759 972 1856 886 
Q 1953 800 2241 800 
L 2816 800 
L 2816 0 
L 1856 0 
Q 1194 0 917 276 
Q 641 553 641 1216 
L 641 2700 
L 84 2700 
L 84 3500 
L 641 3500 
L 641 4494 
L 1759 4494 
z
" transform="scale(0.015625)"/>
     <path id="DejaVuSans-Bold-72" d="M 3138 2547 
Q 2991 2616 2845 2648 
Q 2700 2681 2553 2681 
Q 2122 2681 1889 2404 
Q 1656 2128 1656 1613 
L 1656 0 
L 538 0 
L 538 3500 
L 1656 3500 
L 1656 2925 
Q 1872 3269 2151 3426 
Q 2431 3584 2822 3584 
Q 2878 3584 2943 3579 
Q 3009 3575 3134 3559 
L 3138 2547 
z
" transform="scale(0.015625)"/>
     <path id="DejaVuSans-Bold-6c" d="M 538 4863 
L 1656 4863 
L 1656 0 
L 538 0 
L 538 4863 
z
" transform="scale(0.015625)"/>
     <path id="DejaVuSans-Bold-76" d="M 97 3500 
L 1216 3500 
L 2088 1081 
L 2956 3500 
L 4078 3500 
L 2700 0 
L 1472 0 
L 97 3500 
z
" transform="scale(0.015625)"/>
     <path id="DejaVuSans-Bold-68" d="M 4056 2131 
L 4056 0 
L 2931 0 
L 2931 347 
L 2931 1625 
Q 2931 2084 2911 2256 
Q 2891 2428 2841 2509 
Q 2775 2619 2662 2680 
Q 2550 2741 2406 2741 
Q 2056 2741 1856 2470 
Q 1656 2200 1656 1722 
L 1656 0 
L 538 0 
L 538 4863 
L 1656 4863 
L 1656 2988 
Q 1909 3294 2193 3439 
Q 2478 3584 2822 3584 
Q 3428 3584 3742 3212 
Q 4056 2841 4056 2131 
z
" transform="scale(0.015625)"/>
     <path id="DejaVuSans-Bold-66" d="M 2841 4863 
L 2841 4128 
L 2222 4128 
Q 1984 4128 1890 4042 
Q 1797 3956 1797 3744 
L 1797 3500 
L 2753 3500 
L 2753 2700 
L 1797 2700 
L 1797 0 
L 678 0 
L 678 2700 
L 122 2700 
L 122 3500 
L 678 3500 
L 678 3744 
Q 678 4316 997 4589 
Q 1316 4863 1984 4863 
L 2841 4863 
z
" transform="scale(0.015625)"/>
     <path id="DejaVuSans-Bold-6e" d="M 4056 2131 
L 4056 0 
L 2931 0 
L 2931 347 
L 2931 1631 
Q 2931 2084 2911 2256 
Q 2891 2428 2841 2509 
Q 2775 2619 2662 2680 
Q 2550 2741 2406 2741 
Q 2056 2741 1856 2470 
Q 1656 2200 1656 1722 
L 1656 0 
L 538 0 
L 538 3500 
L 1656 3500 
L 1656 2988 
Q 1909 3294 2193 3439 
Q 2478 3584 2822 3584 
Q 3428 3584 3742 3212 
Q 4056 2841 4056 2131 
z
" transform="scale(0.015625)"/>
     <path id="DejaVuSans-Bold-6d" d="M 3781 2919 
Q 3994 3244 4286 3414 
Q 4578 3584 4928 3584 
Q 5531 3584 5847 3212 
Q 6163 2841 6163 2131 
L 6163 0 
L 5038 0 
L 5038 1825 
Q 5041 1866 5042 1909 
Q 5044 1953 5044 2034 
Q 5044 2406 4934 2573 
Q 4825 2741 4581 2741 
Q 4263 2741 4089 2478 
Q 3916 2216 3909 1719 
L 3909 0 
L 2784 0 
L 2784 1825 
Q 2784 2406 2684 2573 
Q 2584 2741 2328 2741 
Q 2006 2741 1831 2477 
Q 1656 2213 1656 1722 
L 1656 0 
L 531 0 
L 531 3500 
L 1656 3500 
L 1656 2988 
Q 1863 3284 2130 3434 
Q 2397 3584 2719 3584 
Q 3081 3584 3359 3409 
Q 3638 3234 3781 2919 
z
" transform="scale(0.015625)"/>
     <path id="DejaVuSans-Bold-69" d="M 538 3500 
L 1656 3500 
L 1656 0 
L 538 0 
L 538 3500 
z
M 538 4863 
L 1656 4863 
L 1656 3950 
L 538 3950 
L 538 4863 
z
" transform="scale(0.015625)"/>
     <path id="DejaVuSans-Bold-63" d="M 3366 3391 
L 3366 2478 
Q 3138 2634 2908 2709 
Q 2678 2784 2431 2784 
Q 1963 2784 1702 2511 
Q 1441 2238 1441 1747 
Q 1441 1256 1702 982 
Q 1963 709 2431 709 
Q 2694 709 2930 787 
Q 3166 866 3366 1019 
L 3366 103 
Q 3103 6 2833 -42 
Q 2563 -91 2291 -91 
Q 1344 -91 809 395 
Q 275 881 275 1747 
Q 275 2613 809 3098 
Q 1344 3584 2291 3584 
Q 2566 3584 2833 3536 
Q 3100 3488 3366 3391 
z
" transform="scale(0.015625)"/>
     <path id="DejaVuSans-Bold-79" d="M 78 3500 
L 1197 3500 
L 2138 1125 
L 2938 3500 
L 4056 3500 
L 2584 -331 
Q 2363 -916 2067 -1148 
Q 1772 -1381 1288 -1381 
L 641 -1381 
L 641 -647 
L 991 -647 
Q 1275 -647 1404 -556 
Q 1534 -466 1606 -231 
L 1638 -134 
L 78 3500 
z
" transform="scale(0.015625)"/>
    </defs>
    <use xlink:href="#DejaVuSans-Bold-4c"/>
    <use xlink:href="#DejaVuSans-Bold-61" transform="translate(63.720703 0)"/>
    <use xlink:href="#DejaVuSans-Bold-6b" transform="translate(131.201172 0)"/>
    <use xlink:href="#DejaVuSans-Bold-65" transform="translate(195.080078 0)"/>
    <use xlink:href="#DejaVuSans-Bold-20" transform="translate(262.902344 0)"/>
    <use xlink:href="#DejaVuSans-Bold-4d" transform="translate(297.716797 0)"/>
    <use xlink:href="#DejaVuSans-Bold-65" transform="translate(397.228516 0)"/>
    <use xlink:href="#DejaVuSans-Bold-61" transform="translate(465.050781 0)"/>
    <use xlink:href="#DejaVuSans-Bold-64" transform="translate(532.53125 0)"/>
    <use xlink:href="#DejaVuSans-Bold-2019" transform="translate(604.113281 0)"/>
    <use xlink:href="#DejaVuSans-Bold-73" transform="translate(642.101562 0)"/>
    <use xlink:href="#DejaVuSans-Bold-20" transform="translate(701.623047 0)"/>
    <use xlink:href="#DejaVuSans-Bold-77" transform="translate(736.4375 0)"/>
    <use xlink:href="#DejaVuSans-Bold-61" transform="translate(828.820312 0)"/>
    <use xlink:href="#DejaVuSans-Bold-74" transform="translate(896.300781 0)"/>
    <use xlink:href="#DejaVuSans-Bold-65" transform="translate(944.103516 0)"/>
    <use xlink:href="#DejaVuSans-Bold-72" transform="translate(1011.925781 0)"/>
    <use xlink:href="#DejaVuSans-Bold-20" transform="translate(1061.242188 0)"/>
    <use xlink:href="#DejaVuSans-Bold-6c" transform="translate(1096.056641 0)"/>
    <use xlink:href="#DejaVuSans-Bold-65" transform="translate(1130.333984 0)"/>
    <use xlink:href="#DejaVuSans-Bold-76" transform="translate(1198.15625 0)"/>
    <use xlink:href="#DejaVuSans-Bold-65" transform="translate(1263.341797 0)"/>
    <use xlink:href="#DejaVuSans-Bold-6c" transform="translate(1331.164062 0)"/>
    <use xlink:href="#DejaVuSans-Bold-20" transform="translate(1365.441406 0)"/>
    <use xlink:href="#DejaVuSans-Bold-68" transform="translate(1400.255859 0)"/>
    <use xlink:href="#DejaVuSans-Bold-61" transform="translate(1471.447266 0)"/>
    <use xlink:href="#DejaVuSans-Bold-73" transform="translate(1538.927734 0)"/>
    <use xlink:href="#DejaVuSans-Bold-20" transform="translate(1598.449219 0)"/>
    <use xlink:href="#DejaVuSans-Bold-66" transform="translate(1633.263672 0)"/>
    <use xlink:href="#DejaVuSans-Bold-61" transform="translate(1676.769531 0)"/>
    <use xlink:href="#DejaVuSans-Bold-6c" transform="translate(1744.25 0)"/>
    <use xlink:href="#DejaVuSans-Bold-6c" transform="translate(1778.527344 0)"/>
    <use xlink:href="#DejaVuSans-Bold-65" transform="translate(1812.804688 0)"/>
    <use xlink:href="#DejaVuSans-Bold-6e" transform="translate(1880.626953 0)"/>
    <use xlink:href="#DejaVuSans-Bold-20" transform="translate(1951.818359 0)"/>
    <use xlink:href="#DejaVuSans-Bold-64" transform="translate(1986.632812 0)"/>
    <use xlink:href="#DejaVuSans-Bold-72" transform="translate(2058.214844 0)"/>
    <use xlink:href="#DejaVuSans-Bold-61" transform="translate(2107.53125 0)"/>
    <use xlink:href="#DejaVuSans-Bold-6d" transform="translate(2175.011719 0)"/>
    <use xlink:href="#DejaVuSans-Bold-61" transform="translate(2279.210938 0)"/>
    <use xlink:href="#DejaVuSans-Bold-74" transform="translate(2346.691406 0)"/>
    <use xlink:href="#DejaVuSans-Bold-69" transform="translate(2394.494141 0)"/>
    <use xlink:href="#DejaVuSans-Bold-63" transform="translate(2428.771484 0)"/>
    <use xlink:href="#DejaVuSans-Bold-61" transform="translate(2488.048828 0)"/>
    <use xlink:href="#DejaVuSans-Bold-6c" transform="translate(2555.529297 0)"/>
    <use xlink:href="#DejaVuSans-Bold-6c" transform="translate(2589.806641 0)"/>
    <use xlink:href="#DejaVuSans-Bold-79" transform="translate(2624.083984 0)"/>
   </g>
  </g>
  <g id="text_22">
   <!-- End-of-month reservoir elevation at Hoover Dam, 1935–2026 -->
   <g transform="translate(15.600937 40.036875) scale(0.11 -0.11)">
    <defs>
     <path id="DejaVuSans-2d" d="M 313 2009 
L 1997 2009 
L 1997 1497 
L 313 1497 
L 313 2009 
z
" transform="scale(0.015625)"/>
     <path id="DejaVuSans-6d" d="M 3328 2828 
Q 3544 3216 3844 3400 
Q 4144 3584 4550 3584 
Q 5097 3584 5394 3201 
Q 5691 2819 5691 2113 
L 5691 0 
L 5113 0 
L 5113 2094 
Q 5113 2597 4934 2840 
Q 4756 3084 4391 3084 
Q 3944 3084 3684 2787 
Q 3425 2491 3425 1978 
L 3425 0 
L 2847 0 
L 2847 2094 
Q 2847 2600 2669 2842 
Q 2491 3084 2119 3084 
Q 1678 3084 1418 2786 
Q 1159 2488 1159 1978 
L 1159 0 
L 581 0 
L 581 3500 
L 1159 3500 
L 1159 2956 
Q 1356 3278 1631 3431 
Q 1906 3584 2284 3584 
Q 2666 3584 2933 3390 
Q 3200 3197 3328 2828 
z
" transform="scale(0.015625)"/>
     <path id="DejaVuSans-44" d="M 1259 4147 
L 1259 519 
L 2022 519 
Q 2988 519 3436 956 
Q 3884 1394 3884 2338 
Q 3884 3275 3436 3711 
Q 2988 4147 2022 4147 
L 1259 4147 
z
M 628 4666 
L 1925 4666 
Q 3281 4666 3915 4102 
Q 4550 3538 4550 2338 
Q 4550 1131 3912 565 
Q 3275 0 1925 0 
L 628 0 
L 628 4666 
z
" transform="scale(0.015625)"/>
     <path id="DejaVuSans-2c" d="M 750 794 
L 1409 794 
L 1409 256 
L 897 -744 
L 494 -744 
L 750 256 
L 750 794 
z
" transform="scale(0.015625)"/>
     <path id="DejaVuSans-2013" d="M 313 1978 
L 2888 1978 
L 2888 1528 
L 313 1528 
L 313 1978 
z
" transform="scale(0.015625)"/>
    </defs>
    <use xlink:href="#DejaVuSans-45"/>
    <use xlink:href="#DejaVuSans-6e" transform="translate(63.183594 0)"/>
    <use xlink:href="#DejaVuSans-64" transform="translate(126.5625 0)"/>
    <use xlink:href="#DejaVuSans-2d" transform="translate(190.039062 0)"/>
    <use xlink:href="#DejaVuSans-6f" transform="translate(227.998047 0)"/>
    <use xlink:href="#DejaVuSans-66" transform="translate(289.179688 0)"/>
    <use xlink:href="#DejaVuSans-2d" transform="translate(318.884766 0)"/>
    <use xlink:href="#DejaVuSans-6d" transform="translate(354.96875 0)"/>
    <use xlink:href="#DejaVuSans-6f" transform="translate(452.380859 0)"/>
    <use xlink:href="#DejaVuSans-6e" transform="translate(513.5625 0)"/>
    <use xlink:href="#DejaVuSans-74" transform="translate(576.941406 0)"/>
    <use xlink:href="#DejaVuSans-68" transform="translate(616.150391 0)"/>
    <use xlink:href="#DejaVuSans-20" transform="translate(679.529297 0)"/>
    <use xlink:href="#DejaVuSans-72" transform="translate(711.316406 0)"/>
    <use xlink:href="#DejaVuSans-65" transform="translate(750.179688 0)"/>
    <use xlink:href="#DejaVuSans-73" transform="translate(811.703125 0)"/>
    <use xlink:href="#DejaVuSans-65" transform="translate(863.802734 0)"/>
    <use xlink:href="#DejaVuSans-72" transform="translate(925.326172 0)"/>
    <use xlink:href="#DejaVuSans-76" transform="translate(966.439453 0)"/>
    <use xlink:href="#DejaVuSans-6f" transform="translate(1025.619141 0)"/>
    <use xlink:href="#DejaVuSans-69" transform="translate(1086.800781 0)"/>
    <use xlink:href="#DejaVuSans-72" transform="translate(1114.583984 0)"/>
    <use xlink:href="#DejaVuSans-20" transform="translate(1155.697266 0)"/>
    <use xlink:href="#DejaVuSans-65" transform="translate(1187.484375 0)"/>
    <use xlink:href="#DejaVuSans-6c" transform="translate(1249.007812 0)"/>
    <use xlink:href="#DejaVuSans-65" transform="translate(1276.791016 0)"/>
    <use xlink:href="#DejaVuSans-76" transform="translate(1338.314453 0)"/>
    <use xlink:href="#DejaVuSans-61" transform="translate(1397.494141 0)"/>
    <use xlink:href="#DejaVuSans-74" transform="translate(1458.773438 0)"/>
    <use xlink:href="#DejaVuSans-69" transform="translate(1497.982422 0)"/>
    <use xlink:href="#DejaVuSans-6f" transform="translate(1525.765625 0)"/>
    <use xlink:href="#DejaVuSans-6e" transform="translate(1586.947266 0)"/>
    <use xlink:href="#DejaVuSans-20" transform="translate(1650.326172 0)"/>
    <use xlink:href="#DejaVuSans-61" transform="translate(1682.113281 0)"/>
    <use xlink:href="#DejaVuSans-74" transform="translate(1743.392578 0)"/>
    <use xlink:href="#DejaVuSans-20" transform="translate(1782.601562 0)"/>
    <use xlink:href="#DejaVuSans-48" transform="translate(1814.388672 0)"/>
    <use xlink:href="#DejaVuSans-6f" transform="translate(1889.583984 0)"/>
    <use xlink:href="#DejaVuSans-6f" transform="translate(1950.765625 0)"/>
    <use xlink:href="#DejaVuSans-76" transform="translate(2011.947266 0)"/>
    <use xlink:href="#DejaVuSans-65" transform="translate(2071.126953 0)"/>
    <use xlink:href="#DejaVuSans-72" transform="translate(2132.650391 0)"/>
    <use xlink:href="#DejaVuSans-20" transform="translate(2173.763672 0)"/>
    <use xlink:href="#DejaVuSans-44" transform="translate(2205.550781 0)"/>
    <use xlink:href="#DejaVuSans-61" transform="translate(2282.552734 0)"/>
    <use xlink:href="#DejaVuSans-6d" transform="translate(2343.832031 0)"/>
    <use xlink:href="#DejaVuSans-2c" transform="translate(2441.244141 0)"/>
    <use xlink:href="#DejaVuSans-20" transform="translate(2473.03125 0)"/>
    <use xlink:href="#DejaVuSans-31" transform="translate(2504.818359 0)"/>
    <use xlink:href="#DejaVuSans-39" transform="translate(2568.441406 0)"/>
    <use xlink:href="#DejaVuSans-33" transform="translate(2632.064453 0)"/>
    <use xlink:href="#DejaVuSans-35" transform="translate(2695.6875 0)"/>
    <use xlink:href="#DejaVuSans-2013" transform="translate(2759.310547 0)"/>
    <use xlink:href="#DejaVuSans-32" transform="translate(2809.310547 0)"/>
    <use xlink:href="#DejaVuSans-30" transform="translate(2872.933594 0)"/>
    <use xlink:href="#DejaVuSans-32" transform="translate(2936.556641 0)"/>
    <use xlink:href="#DejaVuSans-36" transform="translate(3000.179688 0)"/>
   </g>
  </g>
  <g id="text_23">
   <!-- Source: U.S. Bureau of Reclamation, Lake Mead end-of-month elevation records. -->
   <g transform="translate(15.600937 481.036875) scale(0.09 -0.09)">
    <defs>
     <path id="DejaVuSans-53" d="M 3425 4513 
L 3425 3897 
Q 3066 4069 2747 4153 
Q 2428 4238 2131 4238 
Q 1616 4238 1336 4038 
Q 1056 3838 1056 3469 
Q 1056 3159 1242 3001 
Q 1428 2844 1947 2747 
L 2328 2669 
Q 3034 2534 3370 2195 
Q 3706 1856 3706 1288 
Q 3706 609 3251 259 
Q 2797 -91 1919 -91 
Q 1588 -91 1214 -16 
Q 841 59 441 206 
L 441 856 
Q 825 641 1194 531 
Q 1563 422 1919 422 
Q 2459 422 2753 634 
Q 3047 847 3047 1241 
Q 3047 1584 2836 1778 
Q 2625 1972 2144 2069 
L 1759 2144 
Q 1053 2284 737 2584 
Q 422 2884 422 3419 
Q 422 4038 858 4394 
Q 1294 4750 2059 4750 
Q 2388 4750 2728 4690 
Q 3069 4631 3425 4513 
z
" transform="scale(0.015625)"/>
     <path id="DejaVuSans-3a" d="M 750 794 
L 1409 794 
L 1409 0 
L 750 0 
L 750 794 
z
M 750 3309 
L 1409 3309 
L 1409 2516 
L 750 2516 
L 750 3309 
z
" transform="scale(0.015625)"/>
     <path id="DejaVuSans-55" d="M 556 4666 
L 1191 4666 
L 1191 1831 
Q 1191 1081 1462 751 
Q 1734 422 2344 422 
Q 2950 422 3222 751 
Q 3494 1081 3494 1831 
L 3494 4666 
L 4128 4666 
L 4128 1753 
Q 4128 841 3676 375 
Q 3225 -91 2344 -91 
Q 1459 -91 1007 375 
Q 556 841 556 1753 
L 556 4666 
z
" transform="scale(0.015625)"/>
     <path id="DejaVuSans-42" d="M 1259 2228 
L 1259 519 
L 2272 519 
Q 2781 519 3026 730 
Q 3272 941 3272 1375 
Q 3272 1813 3026 2020 
Q 2781 2228 2272 2228 
L 1259 2228 
z
M 1259 4147 
L 1259 2741 
L 2194 2741 
Q 2656 2741 2882 2914 
Q 3109 3088 3109 3444 
Q 3109 3797 2882 3972 
Q 2656 4147 2194 4147 
L 1259 4147 
z
M 628 4666 
L 2241 4666 
Q 2963 4666 3353 4366 
Q 3744 4066 3744 3513 
Q 3744 3084 3544 2831 
Q 3344 2578 2956 2516 
Q 3422 2416 3680 2098 
Q 3938 1781 3938 1306 
Q 3938 681 3513 340 
Q 3088 0 2303 0 
L 628 0 
L 628 4666 
z
" transform="scale(0.015625)"/>
     <path id="DejaVuSans-52" d="M 2841 2188 
Q 3044 2119 3236 1894 
Q 3428 1669 3622 1275 
L 4263 0 
L 3584 0 
L 2988 1197 
Q 2756 1666 2539 1819 
Q 2322 1972 1947 1972 
L 1259 1972 
L 1259 0 
L 628 0 
L 628 4666 
L 2053 4666 
Q 2853 4666 3247 4331 
Q 3641 3997 3641 3322 
Q 3641 2881 3436 2590 
Q 3231 2300 2841 2188 
z
M 1259 4147 
L 1259 2491 
L 2053 2491 
Q 2509 2491 2742 2702 
Q 2975 2913 2975 3322 
Q 2975 3731 2742 3939 
Q 2509 4147 2053 4147 
L 1259 4147 
z
" transform="scale(0.015625)"/>
     <path id="DejaVuSans-6b" d="M 581 4863 
L 1159 4863 
L 1159 1991 
L 2875 3500 
L 3609 3500 
L 1753 1863 
L 3688 0 
L 2938 0 
L 1159 1709 
L 1159 0 
L 581 0 
L 581 4863 
z
" transform="scale(0.015625)"/>
    </defs>
    <use xlink:href="#DejaVuSans-53"/>
    <use xlink:href="#DejaVuSans-6f" transform="translate(63.476562 0)"/>
    <use xlink:href="#DejaVuSans-75" transform="translate(124.658203 0)"/>
    <use xlink:href="#DejaVuSans-72" transform="translate(188.037109 0)"/>
    <use xlink:href="#DejaVuSans-63" transform="translate(226.900391 0)"/>
    <use xlink:href="#DejaVuSans-65" transform="translate(281.880859 0)"/>
    <use xlink:href="#DejaVuSans-3a" transform="translate(343.404297 0)"/>
    <use xlink:href="#DejaVuSans-20" transform="translate(377.095703 0)"/>
    <use xlink:href="#DejaVuSans-55" transform="translate(408.882812 0)"/>
    <use xlink:href="#DejaVuSans-2e" transform="translate(482.076172 0)"/>
    <use xlink:href="#DejaVuSans-53" transform="translate(513.863281 0)"/>
    <use xlink:href="#DejaVuSans-2e" transform="translate(577.339844 0)"/>
    <use xlink:href="#DejaVuSans-20" transform="translate(609.126953 0)"/>
    <use xlink:href="#DejaVuSans-42" transform="translate(640.914062 0)"/>
    <use xlink:href="#DejaVuSans-75" transform="translate(709.517578 0)"/>
    <use xlink:href="#DejaVuSans-72" transform="translate(772.896484 0)"/>
    <use xlink:href="#DejaVuSans-65" transform="translate(811.759766 0)"/>
    <use xlink:href="#DejaVuSans-61" transform="translate(873.283203 0)"/>
    <use xlink:href="#DejaVuSans-75" transform="translate(934.5625 0)"/>
    <use xlink:href="#DejaVuSans-20" transform="translate(997.941406 0)"/>
    <use xlink:href="#DejaVuSans-6f" transform="translate(1029.728516 0)"/>
    <use xlink:href="#DejaVuSans-66" transform="translate(1090.910156 0)"/>
    <use xlink:href="#DejaVuSans-20" transform="translate(1126.115234 0)"/>
    <use xlink:href="#DejaVuSans-52" transform="translate(1157.902344 0)"/>
    <use xlink:href="#DejaVuSans-65" transform="translate(1222.884766 0)"/>
    <use xlink:href="#DejaVuSans-63" transform="translate(1284.408203 0)"/>
    <use xlink:href="#DejaVuSans-6c" transform="translate(1339.388672 0)"/>
    <use xlink:href="#DejaVuSans-61" transform="translate(1367.171875 0)"/>
    <use xlink:href="#DejaVuSans-6d" transform="translate(1428.451172 0)"/>
    <use xlink:href="#DejaVuSans-61" transform="translate(1525.863281 0)"/>
    <use xlink:href="#DejaVuSans-74" transform="translate(1587.142578 0)"/>
    <use xlink:href="#DejaVuSans-69" transform="translate(1626.351562 0)"/>
    <use xlink:href="#DejaVuSans-6f" transform="translate(1654.134766 0)"/>
    <use xlink:href="#DejaVuSans-6e" transform="translate(1715.316406 0)"/>
    <use xlink:href="#DejaVuSans-2c" transform="translate(1778.695312 0)"/>
    <use xlink:href="#DejaVuSans-20" transform="translate(1810.482422 0)"/>
    <use xlink:href="#DejaVuSans-4c" transform="translate(1842.269531 0)"/>
    <use xlink:href="#DejaVuSans-61" transform="translate(1897.982422 0)"/>
    <use xlink:href="#DejaVuSans-6b" transform="translate(1959.261719 0)"/>
    <use xlink:href="#DejaVuSans-65" transform="translate(2013.546875 0)"/>
    <use xlink:href="#DejaVuSans-20" transform="translate(2075.070312 0)"/>
    <use xlink:href="#DejaVuSans-4d" transform="translate(2106.857422 0)"/>
    <use xlink:href="#DejaVuSans-65" transform="translate(2193.136719 0)"/>
    <use xlink:href="#DejaVuSans-61" transform="translate(2254.660156 0)"/>
    <use xlink:href="#DejaVuSans-64" transform="translate(2315.939453 0)"/>
    <use xlink:href="#DejaVuSans-20" transform="translate(2379.416016 0)"/>
    <use xlink:href="#DejaVuSans-65" transform="translate(2411.203125 0)"/>
    <use xlink:href="#DejaVuSans-6e" transform="translate(2472.726562 0)"/>
    <use xlink:href="#DejaVuSans-64" transform="translate(2536.105469 0)"/>
    <use xlink:href="#DejaVuSans-2d" transform="translate(2599.582031 0)"/>
    <use xlink:href="#DejaVuSans-6f" transform="translate(2637.541016 0)"/>
    <use xlink:href="#DejaVuSans-66" transform="translate(2698.722656 0)"/>
    <use xlink:href="#DejaVuSans-2d" transform="translate(2728.427734 0)"/>
    <use xlink:href="#DejaVuSans-6d" transform="translate(2764.511719 0)"/>
    <use xlink:href="#DejaVuSans-6f" transform="translate(2861.923828 0)"/>
    <use xlink:href="#DejaVuSans-6e" transform="translate(2923.105469 0)"/>
    <use xlink:href="#DejaVuSans-74" transform="translate(2986.484375 0)"/>
    <use xlink:href="#DejaVuSans-68" transform="translate(3025.693359 0)"/>
    <use xlink:href="#DejaVuSans-20" transform="translate(3089.072266 0)"/>
    <use xlink:href="#DejaVuSans-65" transform="translate(3120.859375 0)"/>
    <use xlink:href="#DejaVuSans-6c" transform="translate(3182.382812 0)"/>
    <use xlink:href="#DejaVuSans-65" transform="translate(3210.166016 0)"/>
    <use xlink:href="#DejaVuSans-76" transform="translate(3271.689453 0)"/>
    <use xlink:href="#DejaVuSans-61" transform="translate(3330.869141 0)"/>
    <use xlink:href="#DejaVuSans-74" transform="translate(3392.148438 0)"/>
    <use xlink:href="#DejaVuSans-69" transform="translate(3431.357422 0)"/>
    <use xlink:href="#DejaVuSans-6f" transform="translate(3459.140625 0)"/>
    <use xlink:href="#DejaVuSans-6e" transform="translate(3520.322266 0)"/>
    <use xlink:href="#DejaVuSans-20" transform="translate(3583.701172 0)"/>
    <use xlink:href="#DejaVuSans-72" transform="translate(3615.488281 0)"/>
    <use xlink:href="#DejaVuSans-65" transform="translate(3654.351562 0)"/>
    <use xlink:href="#DejaVuSans-63" transform="translate(3715.875 0)"/>
    <use xlink:href="#DejaVuSans-6f" transform="translate(3770.855469 0)"/>
    <use xlink:href="#DejaVuSans-72" transform="translate(3832.037109 0)"/>
    <use xlink:href="#DejaVuSans-64" transform="translate(3871.400391 0)"/>
    <use xlink:href="#DejaVuSans-73" transform="translate(3934.876953 0)"/>
    <use xlink:href="#DejaVuSans-2e" transform="translate(3986.976562 0)"/>
   </g>
  </g>
 </g>
 <defs>
  <clipPath id="p6593d145a8">
   <rect x="56.840937" y="115.812673" width="845.129906" height="300.384504"/>
  </clipPath>
 </defs>
</svg>
